<svg xmlns="http://www.w3.org/2000/svg" width="40.148" height="30.841" viewBox="0 0 40.148 30.841">
  <g id="Fast_Time" transform="translate(0 -59.347)">
    <g id="Group_370" data-name="Group 370" transform="translate(0 59.347)">
      <g id="Group_364" data-name="Group 364" transform="translate(9.307)">
        <g id="Group_354" data-name="Group 354" transform="translate(0)">
          <path id="Path_211" data-name="Path 211" d="M134.115,90.188a15.421,15.421,0,1,1,15.421-15.421A15.438,15.438,0,0,1,134.115,90.188Zm0-29.273a13.852,13.852,0,1,0,13.852,13.852A13.868,13.868,0,0,0,134.115,60.915Z" transform="translate(-118.695 -59.347)" fill="#60328f"/>
        </g>
        <g id="Group_355" data-name="Group 355" transform="translate(14.636 9.469)">
          <path id="Path_212" data-name="Path 212" d="M312,192.713a.782.782,0,0,1-.555-.23l-5.873-5.873a.784.784,0,0,1-.23-.554v-5.167a.784.784,0,0,1,1.568,0v4.842l5.644,5.644a.784.784,0,0,1-.555,1.339Z" transform="translate(-305.347 -180.104)" fill="#60328f"/>
        </g>
        <g id="Group_356" data-name="Group 356" transform="translate(14.636)">
          <path id="Path_213" data-name="Path 213" d="M306.131,63.718a.784.784,0,0,1-.784-.784v-2.8a.784.784,0,0,1,1.568,0v2.8A.784.784,0,0,1,306.131,63.718Z" transform="translate(-305.347 -59.347)" fill="#60328f"/>
        </g>
        <g id="Group_357" data-name="Group 357" transform="translate(14.636 26.47)">
          <path id="Path_214" data-name="Path 214" d="M306.131,401.278a.784.784,0,0,1-.784-.784v-2.8a.784.784,0,1,1,1.568,0v2.8A.784.784,0,0,1,306.131,401.278Z" transform="translate(-305.347 -396.907)" fill="#60328f"/>
        </g>
        <g id="Group_358" data-name="Group 358" transform="translate(26.47 14.636)">
          <path id="Path_215" data-name="Path 215" d="M459.841,247.568h-2.8a.784.784,0,1,1,0-1.568h2.8a.784.784,0,1,1,0,1.568Z" transform="translate(-456.254 -246)" fill="#60328f"/>
        </g>
        <g id="Group_359" data-name="Group 359" transform="translate(0 14.636)">
          <path id="Path_216" data-name="Path 216" d="M122.281,247.568h-2.8a.784.784,0,0,1,0-1.568h2.8a.784.784,0,0,1,0,1.568Z" transform="translate(-118.694 -246)" fill="#60328f"/>
        </g>
        <g id="Group_360" data-name="Group 360" transform="translate(23.004 4.287)">
          <path id="Path_217" data-name="Path 217" d="M412.839,117.567a.784.784,0,0,1-.554-1.339l1.982-1.982a.784.784,0,0,1,1.109,1.109l-1.982,1.982A.782.782,0,0,1,412.839,117.567Z" transform="translate(-412.055 -114.017)" fill="#60328f"/>
        </g>
        <g id="Group_361" data-name="Group 361" transform="translate(4.287 23.004)">
          <path id="Path_218" data-name="Path 218" d="M174.147,356.257a.784.784,0,0,1-.554-1.339l1.982-1.982a.784.784,0,0,1,1.109,1.109l-1.982,1.982A.782.782,0,0,1,174.147,356.257Z" transform="translate(-173.363 -352.707)" fill="#60328f"/>
        </g>
        <g id="Group_362" data-name="Group 362" transform="translate(23.004 23.004)">
          <path id="Path_219" data-name="Path 219" d="M414.821,356.257a.782.782,0,0,1-.554-.23l-1.982-1.982a.784.784,0,0,1,1.109-1.109l1.982,1.982a.784.784,0,0,1-.555,1.339Z" transform="translate(-412.055 -352.707)" fill="#60328f"/>
        </g>
        <g id="Group_363" data-name="Group 363" transform="translate(4.287 4.287)">
          <path id="Path_220" data-name="Path 220" d="M176.13,117.567a.782.782,0,0,1-.554-.23l-1.982-1.982a.784.784,0,1,1,1.109-1.109l1.982,1.982a.784.784,0,0,1-.555,1.339Z" transform="translate(-173.364 -114.017)" fill="#60328f"/>
        </g>
      </g>
      <g id="Group_365" data-name="Group 365" transform="translate(1.364 14.636)">
        <path id="Path_221" data-name="Path 221" d="M22.575,247.568H18.184a.784.784,0,0,1,0-1.568h4.391a.784.784,0,1,1,0,1.568Z" transform="translate(-17.4 -246)" fill="#60328f"/>
      </g>
      <g id="Group_366" data-name="Group 366" transform="translate(4.705 8.363)">
        <path id="Path_222" data-name="Path 222" d="M66.8,167.568H60.784a.784.784,0,0,1,0-1.568H66.8a.784.784,0,0,1,0,1.568Z" transform="translate(-60 -166)" fill="#60328f"/>
      </g>
      <g id="Group_367" data-name="Group 367" transform="translate(0 3.658)">
        <path id="Path_223" data-name="Path 223" d="M9.175,107.568H.784a.784.784,0,0,1,0-1.568h8.39a.784.784,0,0,1,0,1.568Z" transform="translate(0 -106)" fill="#60328f"/>
      </g>
      <g id="Group_368" data-name="Group 368" transform="translate(4.705 20.91)">
        <path id="Path_224" data-name="Path 224" d="M66.8,327.568H60.784a.784.784,0,1,1,0-1.568H66.8a.784.784,0,1,1,0,1.568Z" transform="translate(-60 -326)" fill="#60328f"/>
      </g>
      <g id="Group_369" data-name="Group 369" transform="translate(0 25.614)">
        <path id="Path_225" data-name="Path 225" d="M9.175,387.568H.784a.784.784,0,0,1,0-1.568h8.39a.784.784,0,0,1,0,1.568Z" transform="translate(0 -386)" fill="#60328f"/>
      </g>
    </g>
  </g>
</svg>
