<svg xmlns="http://www.w3.org/2000/svg" width="32" height="31.998" viewBox="0 0 32 31.998">
  <path id="Path_1842" data-name="Path 1842" d="M16,32.059a16.127,16.127,0,0,1-3.225-.325,15.916,15.916,0,0,1-5.721-2.407,16.046,16.046,0,0,1-5.8-7.039,15.928,15.928,0,0,1-.932-3,16.152,16.152,0,0,1,.04-6.637A15.912,15.912,0,0,1,3.052,6.658a16.123,16.123,0,0,1,2.17-2.423A11.052,11.052,0,0,0,6.2,6.546,11.7,11.7,0,0,0,7.669,8.588a11.815,11.815,0,0,0,1.867,1.686,11.327,11.327,0,0,0,2.183,1.242.822.822,0,0,0,.089.06l.022.013a.375.375,0,0,1,.08.055.4.4,0,0,1,.053.069.366.366,0,0,0,.06.075.357.357,0,0,0,.084.051l.029.014a.829.829,0,0,1,.181.137c.029.026.057.052.088.076a1.125,1.125,0,0,0,.162.1c.03.016.064.035.095.055a1.815,1.815,0,0,1,.161.112l.051.04a.511.511,0,0,0,.2.118.637.637,0,0,1,.229.118h0a.476.476,0,0,1,.061.055.525.525,0,0,0,.057.052.925.925,0,0,0,.164.088,1.146,1.146,0,0,1,.136.068c.078.049.161.091.241.133a2.494,2.494,0,0,1,.321.187.4.4,0,0,0,.127.061c.021.006.041.014.06.021a.506.506,0,0,0,.125.034h.01l.028,0h.011l.014,0a57.329,57.329,0,0,0,2.546,5.2c.58,1.062,1.262,2.167,2.212,3.583.715,1.035,1.4,1.938,2.079,2.76h0l-.061-.015-.305-.089c-.117-.038-.242-.08-.365-.129-.038-.015-.076-.034-.114-.053a1.024,1.024,0,0,0-.2-.082c-.055-.013-.11-.02-.163-.028l-.064-.009a.919.919,0,0,1-.18-.053L20,24.384c-.225-.08-.485-.174-.73-.285l-.063-.029-.006,0a2.145,2.145,0,0,0-.4-.151c-.03-.007-.06-.012-.088-.016a.82.82,0,0,1-.137-.03c-.077-.027-.154-.062-.229-.1h0l-.018-.008c-.042-.019-.085-.04-.126-.061-.075-.037-.152-.075-.23-.106-.035-.013-.069-.024-.1-.034a.9.9,0,0,1-.2-.084l-.058-.036a.909.909,0,0,0-.215-.11l-.02-.006a11.863,11.863,0,0,1-1.515-1.484c-.195-.214-.4-.436-.6-.647a14.5,14.5,0,0,0-10.2-4.408H4.935a62.9,62.9,0,0,0,6.305,5.024,13.813,13.813,0,0,0,3.375,1.86,5.313,5.313,0,0,0,1.728.343,3.5,3.5,0,0,0,.9-.118l.1.036.029.009h0a1,1,0,0,1,.15.057.918.918,0,0,1,.112.071.677.677,0,0,0,.274.13l.049.014a2.248,2.248,0,0,1,.34.142c.051.025.1.051.158.074a2.886,2.886,0,0,0,.293.1h0c.052.016.106.033.157.051.1.035.2.073.292.114l.092.04a1.3,1.3,0,0,0,.352.117,1.554,1.554,0,0,1,.395.118l.224.109a2.4,2.4,0,0,0,.284.088c.076.02.155.041.23.068.132.048.268.09.4.13h0a5.858,5.858,0,0,1,.568.2,1.1,1.1,0,0,0,.212.063l.094.021h0a1.561,1.561,0,0,0,.163.032l.023.026.013.014a9.949,9.949,0,0,0-1.8-.164,10.076,10.076,0,0,0-4.823,1.22c-.4.216-.8.474-1.181.723a8.1,8.1,0,0,1-2.84,1.357,7.076,7.076,0,0,0,2.335.376,11,11,0,0,0,3.573-.657A32,32,0,0,0,21.1,27h0c.528-.259,1.074-.527,1.617-.776.167.176.337.352.506.523l.281.269.011.011a18.025,18.025,0,0,0,1.362,1.223l.733.6A15.947,15.947,0,0,1,16,32.059m10.084-3.576h0a31.048,31.048,0,0,1-2.476-2.19,31.415,31.415,0,0,1-4.415-5.517A54.718,54.718,0,0,1,16.067,15a.667.667,0,0,0,.141-.216A1.708,1.708,0,0,1,16.3,14.6l.006-.012,0,0a.213.213,0,0,1,.041-.064.329.329,0,0,0,.074-.148c.006-.018.011-.036.017-.052l.091-.232c.038-.092.08-.186.125-.276.014-.029.032-.057.05-.085a.593.593,0,0,0,.077-.153,1.142,1.142,0,0,0,.026-.141c0-.013,0-.025.005-.038a.568.568,0,0,1,.044-.132l.013-.031.017-.042c.07-.174.143-.352.224-.521l.02-.04,0-.007a1.193,1.193,0,0,0,.12-.316c0-.024.007-.048.009-.071h0a.6.6,0,0,1,.017-.107,1.722,1.722,0,0,1,.071-.185l0-.011.04-.089a1.767,1.767,0,0,0,.081-.194.861.861,0,0,0,.023-.089.65.65,0,0,1,.037-.126,11.061,11.061,0,0,0,2.344-1.437,6.289,6.289,0,0,0,.944-.959A4.779,4.779,0,0,0,21.5,7.876a5.946,5.946,0,0,0,.119-3.6,22.759,22.759,0,0,0-1.2-3.6,16.02,16.02,0,0,1,10.851,20.2c-.163-.132-.328-.263-.487-.39a20.853,20.853,0,0,1-1.727-1.479A5.7,5.7,0,0,1,27.8,17.284a28.8,28.8,0,0,0,.164,4.8,10.577,10.577,0,0,0,1.021,3.328,16.093,16.093,0,0,1-2.9,3.074ZM15.764,14.362h0c-.473-1.006-.939-2.065-1.425-3.236-.326-.8-.676-1.689-1.1-2.794-.5-1.28-.906-2.3-1.216-3.024h.006l-.007,0h0l-.086-.2a12.265,12.265,0,0,0,1.243-4.8,16.137,16.137,0,0,1,7.055.317A49.866,49.866,0,0,0,17.1,8.1a5.843,5.843,0,0,0-.368,1.75,2.354,2.354,0,0,0,.333,1.267l0,.018,0,.014a.554.554,0,0,1-.037.13.591.591,0,0,1-.056.09.553.553,0,0,0-.058.1.539.539,0,0,0-.031.114v0c0,.012,0,.024-.007.037a1.125,1.125,0,0,1-.1.265c-.018.038-.037.077-.054.117a1.561,1.561,0,0,0-.069.2c-.012.044-.027.094-.043.14a2.229,2.229,0,0,1-.089.22l-.028.057,0,0a.843.843,0,0,0-.1.275.865.865,0,0,1-.1.3.74.74,0,0,1-.05.083.747.747,0,0,0-.049.079,1.3,1.3,0,0,0-.076.2,1.449,1.449,0,0,1-.067.181c-.037.081-.072.164-.106.245v0a3.9,3.9,0,0,1-.174.382Zm-1.439-1.84h0l-.042-.017-.176-.086a2.074,2.074,0,0,1-.2-.124.646.646,0,0,1-.06-.051.39.39,0,0,0-.109-.079.768.768,0,0,0-.109-.031l-.031-.007a.353.353,0,0,1-.1-.051l-.021-.013a3.386,3.386,0,0,1-.4-.277l-.036-.03a.813.813,0,0,0-.217-.147c-.018-.007-.036-.012-.053-.017a.344.344,0,0,1-.083-.032,1.048,1.048,0,0,1-.129-.1l0,0c-.025-.02-.049-.043-.071-.063a1.168,1.168,0,0,0-.114-.1.638.638,0,0,0-.057-.033.336.336,0,0,1-.11-.082l-.022-.029,0,0c-.011-.014-.024-.032-.037-.047a9.007,9.007,0,0,0-.955-2.332A10.084,10.084,0,0,0,9.639,6.759a10.447,10.447,0,0,0-2-1.583A9.815,9.815,0,0,0,5.324,4.142a16.045,16.045,0,0,1,3.339-2.3,7.073,7.073,0,0,0,1.2,1.906,5.91,5.91,0,0,0,1.749,1.373c.17.564.411,1.3.68,2.085.529,1.522,1.105,3.055,1.67,4.434.121.3.244.6.366.887Z" transform="translate(0 -0.061)" fill="#73338a"/>
</svg>
