<svg xmlns="http://www.w3.org/2000/svg" width="80.356" height="66.536" viewBox="0 0 80.356 66.536">
  <g id="Group_712" data-name="Group 712" transform="translate(-640.25 -431.214)">
    <g id="Group_711" data-name="Group 711">
      <g id="Group_454" data-name="Group 454" transform="translate(641 431.964)">
        <path id="Path_312" data-name="Path 312" d="M40.153,14.233c13.308.128,21.652-.7,22.771,14.056H79.156c0-22.851-19.933-25.938-39.431-25.938S.3,5.431.3,28.283H16.4C17.655,13.249,26.949,14.1,40.153,14.233Z" transform="translate(-0.3 -2.351)" fill="none" stroke="#5e308c" stroke-linecap="round" stroke-linejoin="round" stroke-miterlimit="10" stroke-width="1.5"/>
        <path id="Path_313" data-name="Path 313" d="M.3,10.05c0,5.786,3.606,5.473,8.051,5.473,3.909,0,7.175.233,7.892-3.653a10.363,10.363,0,0,0,.152-1.823" transform="translate(-0.3 15.888)" fill="none" stroke="#5e308c" stroke-linecap="round" stroke-linejoin="round" stroke-miterlimit="10" stroke-width="1.5"/>
        <path id="Path_314" data-name="Path 314" d="M18.888,10.048a8.792,8.792,0,0,0,.168,1.823c.768,3.586,4.02,3.36,7.933,3.36,4.479,0,8.1.3,8.1-5.183" transform="translate(43.752 15.89)" fill="none" stroke="#5e308c" stroke-linecap="round" stroke-linejoin="round" stroke-miterlimit="10" stroke-width="1.5"/>
        <path id="Path_315" data-name="Path 315" d="M51.146,11.821v-2.3c0-1.031-1.186-1.1-2.645-1.1H46.118c-1.459,0-2.645.064-2.645,1.1v3.522H26.563V9.522c0-1.031-1.186-1.1-2.645-1.1H21.525c-1.459,0-2.645.064-2.645,1.1v4.307c-3.852,4-16.452,21.028-16.91,23.094l.007,13.759a2.3,2.3,0,0,0,2.305,2.305H65.741a2.3,2.3,0,0,0,2.305-2.305V36.859c-.452-2-13.048-19.023-16.9-23.03Z" transform="translate(3.655 12.049)" fill="none" stroke="#5e308c" stroke-linecap="round" stroke-linejoin="round" stroke-miterlimit="10" stroke-width="1.5"/>
      </g>
      <g id="Group_511" data-name="Group 511" transform="translate(670.053 467.523)">
        <g id="Group_464" data-name="Group 464" transform="translate(0.003)">
          <g id="Group_457" data-name="Group 457">
            <g id="Group_456" data-name="Group 456">
              <g id="Group_455" data-name="Group 455">
                <path id="Path_316" data-name="Path 316" d="M12.619,12.9H10.162a1.241,1.241,0,0,0-1.24,1.24V16.6a1.241,1.241,0,0,0,1.24,1.24h2.457a1.241,1.241,0,0,0,1.24-1.24" transform="translate(-8.922 -12.903)" fill="none" stroke="#5e308c" stroke-linecap="round" stroke-linejoin="round" stroke-miterlimit="10" stroke-width="1.5"/>
              </g>
            </g>
          </g>
          <g id="Group_460" data-name="Group 460" transform="translate(0 7.64)">
            <g id="Group_459" data-name="Group 459">
              <g id="Group_458" data-name="Group 458">
                <path id="Path_317" data-name="Path 317" d="M12.619,15.17H10.162a1.241,1.241,0,0,0-1.24,1.24v2.457a1.241,1.241,0,0,0,1.24,1.24h2.457a1.241,1.241,0,0,0,1.24-1.24" transform="translate(-8.922 -15.17)" fill="none" stroke="#5e308c" stroke-linecap="round" stroke-linejoin="round" stroke-miterlimit="10" stroke-width="1.5"/>
              </g>
            </g>
          </g>
          <g id="Group_463" data-name="Group 463" transform="translate(0 15.279)">
            <g id="Group_462" data-name="Group 462">
              <g id="Group_461" data-name="Group 461">
                <path id="Path_318" data-name="Path 318" d="M12.619,17.437H10.162a1.241,1.241,0,0,0-1.24,1.24v2.457a1.241,1.241,0,0,0,1.24,1.24h2.457a1.241,1.241,0,0,0,1.24-1.24" transform="translate(-8.922 -17.437)" fill="none" stroke="#5e308c" stroke-linecap="round" stroke-linejoin="round" stroke-miterlimit="10" stroke-width="1.5"/>
              </g>
            </g>
          </g>
        </g>
        <g id="Group_474" data-name="Group 474">
          <g id="Group_467" data-name="Group 467">
            <g id="Group_466" data-name="Group 466">
              <g id="Group_465" data-name="Group 465">
                <path id="Path_319" data-name="Path 319" d="M8.921,16.6a1.241,1.241,0,0,0,1.24,1.24h2.457a1.241,1.241,0,0,0,1.24-1.24V14.143a1.241,1.241,0,0,0-1.24-1.24H10.165" transform="translate(-8.921 -12.903)" fill="none" stroke="#5e308c" stroke-linecap="round" stroke-linejoin="round" stroke-miterlimit="10" stroke-width="1.5"/>
              </g>
            </g>
          </g>
          <g id="Group_470" data-name="Group 470" transform="translate(0 7.64)">
            <g id="Group_469" data-name="Group 469">
              <g id="Group_468" data-name="Group 468">
                <path id="Path_320" data-name="Path 320" d="M8.921,18.867a1.241,1.241,0,0,0,1.24,1.24h2.457a1.241,1.241,0,0,0,1.24-1.24V16.41a1.241,1.241,0,0,0-1.24-1.24H10.165" transform="translate(-8.921 -15.17)" fill="none" stroke="#5e308c" stroke-linecap="round" stroke-linejoin="round" stroke-miterlimit="10" stroke-width="1.5"/>
              </g>
            </g>
          </g>
          <g id="Group_473" data-name="Group 473" transform="translate(0 15.279)">
            <g id="Group_472" data-name="Group 472">
              <g id="Group_471" data-name="Group 471">
                <path id="Path_321" data-name="Path 321" d="M8.921,21.134a1.241,1.241,0,0,0,1.24,1.24h2.457a1.241,1.241,0,0,0,1.24-1.24V18.677a1.241,1.241,0,0,0-1.24-1.24H10.165" transform="translate(-8.921 -17.437)" fill="none" stroke="#5e308c" stroke-linecap="round" stroke-linejoin="round" stroke-miterlimit="10" stroke-width="1.5"/>
              </g>
            </g>
          </g>
        </g>
        <g id="Group_484" data-name="Group 484" transform="translate(7.892)">
          <g id="Group_477" data-name="Group 477">
            <g id="Group_476" data-name="Group 476">
              <g id="Group_475" data-name="Group 475">
                <path id="Path_322" data-name="Path 322" d="M14.96,12.9H12.5a1.241,1.241,0,0,0-1.24,1.24V16.6a1.241,1.241,0,0,0,1.24,1.24H14.96A1.241,1.241,0,0,0,16.2,16.6" transform="translate(-11.263 -12.903)" fill="none" stroke="#5e308c" stroke-linecap="round" stroke-linejoin="round" stroke-miterlimit="10" stroke-width="1.5"/>
              </g>
            </g>
          </g>
          <g id="Group_480" data-name="Group 480" transform="translate(0 7.64)">
            <g id="Group_479" data-name="Group 479">
              <g id="Group_478" data-name="Group 478">
                <path id="Path_323" data-name="Path 323" d="M14.96,15.17H12.5a1.241,1.241,0,0,0-1.24,1.24v2.457a1.241,1.241,0,0,0,1.24,1.24H14.96a1.241,1.241,0,0,0,1.24-1.24" transform="translate(-11.263 -15.17)" fill="none" stroke="#5e308c" stroke-linecap="round" stroke-linejoin="round" stroke-miterlimit="10" stroke-width="1.5"/>
              </g>
            </g>
          </g>
          <g id="Group_483" data-name="Group 483" transform="translate(0 15.279)">
            <g id="Group_482" data-name="Group 482">
              <g id="Group_481" data-name="Group 481">
                <path id="Path_324" data-name="Path 324" d="M14.96,17.437H12.5a1.241,1.241,0,0,0-1.24,1.24v2.457a1.241,1.241,0,0,0,1.24,1.24H14.96a1.241,1.241,0,0,0,1.24-1.24" transform="translate(-11.263 -17.437)" fill="none" stroke="#5e308c" stroke-linecap="round" stroke-linejoin="round" stroke-miterlimit="10" stroke-width="1.5"/>
              </g>
            </g>
          </g>
        </g>
        <g id="Group_492" data-name="Group 492" transform="translate(15.781)">
          <g id="Group_486" data-name="Group 486">
            <g id="Group_485" data-name="Group 485">
              <path id="Path_325" data-name="Path 325" d="M17.3,12.9H14.844a1.241,1.241,0,0,0-1.24,1.24V16.6a1.241,1.241,0,0,0,1.24,1.24H17.3a1.241,1.241,0,0,0,1.24-1.24" transform="translate(-13.604 -12.903)" fill="none" stroke="#5e308c" stroke-linecap="round" stroke-linejoin="round" stroke-miterlimit="10" stroke-width="1.5"/>
            </g>
          </g>
          <g id="Group_488" data-name="Group 488" transform="translate(0 7.64)">
            <g id="Group_487" data-name="Group 487">
              <path id="Path_326" data-name="Path 326" d="M17.3,15.17H14.844a1.241,1.241,0,0,0-1.24,1.24v2.457a1.241,1.241,0,0,0,1.24,1.24H17.3a1.241,1.241,0,0,0,1.24-1.24" transform="translate(-13.604 -15.17)" fill="none" stroke="#5e308c" stroke-linecap="round" stroke-linejoin="round" stroke-miterlimit="10" stroke-width="1.5"/>
            </g>
          </g>
          <g id="Group_491" data-name="Group 491" transform="translate(0 15.279)">
            <g id="Group_490" data-name="Group 490">
              <g id="Group_489" data-name="Group 489">
                <path id="Path_327" data-name="Path 327" d="M17.3,17.437H14.844a1.241,1.241,0,0,0-1.24,1.24v2.457a1.241,1.241,0,0,0,1.24,1.24H17.3a1.241,1.241,0,0,0,1.24-1.24" transform="translate(-13.604 -17.437)" fill="none" stroke="#5e308c" stroke-linecap="round" stroke-linejoin="round" stroke-miterlimit="10" stroke-width="1.5"/>
              </g>
            </g>
          </g>
        </g>
        <g id="Group_502" data-name="Group 502" transform="translate(15.781)">
          <g id="Group_495" data-name="Group 495">
            <g id="Group_494" data-name="Group 494">
              <g id="Group_493" data-name="Group 493">
                <path id="Path_328" data-name="Path 328" d="M13.6,16.6a1.241,1.241,0,0,0,1.24,1.24H17.3a1.241,1.241,0,0,0,1.24-1.24V14.143A1.241,1.241,0,0,0,17.3,12.9H14.844" transform="translate(-13.604 -12.903)" fill="none" stroke="#5e308c" stroke-linecap="round" stroke-linejoin="round" stroke-miterlimit="10" stroke-width="1.5"/>
              </g>
            </g>
          </g>
          <g id="Group_498" data-name="Group 498" transform="translate(0 7.64)">
            <g id="Group_497" data-name="Group 497">
              <g id="Group_496" data-name="Group 496">
                <path id="Path_329" data-name="Path 329" d="M13.6,18.867a1.241,1.241,0,0,0,1.24,1.24H17.3a1.241,1.241,0,0,0,1.24-1.24V16.41a1.241,1.241,0,0,0-1.24-1.24H14.844" transform="translate(-13.604 -15.17)" fill="none" stroke="#5e308c" stroke-linecap="round" stroke-linejoin="round" stroke-miterlimit="10" stroke-width="1.5"/>
              </g>
            </g>
          </g>
          <g id="Group_501" data-name="Group 501" transform="translate(0 15.279)">
            <g id="Group_500" data-name="Group 500">
              <g id="Group_499" data-name="Group 499">
                <path id="Path_330" data-name="Path 330" d="M13.6,21.134a1.241,1.241,0,0,0,1.24,1.24H17.3a1.241,1.241,0,0,0,1.24-1.24V18.677a1.241,1.241,0,0,0-1.24-1.24H14.844" transform="translate(-13.604 -17.437)" fill="none" stroke="#5e308c" stroke-linecap="round" stroke-linejoin="round" stroke-miterlimit="10" stroke-width="1.5"/>
              </g>
            </g>
          </g>
        </g>
        <g id="Group_510" data-name="Group 510" transform="translate(7.889)">
          <g id="Group_504" data-name="Group 504">
            <g id="Group_503" data-name="Group 503">
              <path id="Path_331" data-name="Path 331" d="M11.262,16.6a1.241,1.241,0,0,0,1.24,1.24h2.457A1.241,1.241,0,0,0,16.2,16.6V14.143a1.241,1.241,0,0,0-1.24-1.24H12.5" transform="translate(-11.262 -12.903)" fill="none" stroke="#5e308c" stroke-linecap="round" stroke-linejoin="round" stroke-miterlimit="10" stroke-width="1.5"/>
            </g>
          </g>
          <g id="Group_506" data-name="Group 506" transform="translate(0 7.64)">
            <g id="Group_505" data-name="Group 505">
              <path id="Path_332" data-name="Path 332" d="M11.262,18.867a1.241,1.241,0,0,0,1.24,1.24h2.457a1.241,1.241,0,0,0,1.24-1.24V16.41a1.241,1.241,0,0,0-1.24-1.24H12.5" transform="translate(-11.262 -15.17)" fill="none" stroke="#5e308c" stroke-linecap="round" stroke-linejoin="round" stroke-miterlimit="10" stroke-width="1.5"/>
            </g>
          </g>
          <g id="Group_509" data-name="Group 509" transform="translate(0 15.279)">
            <g id="Group_508" data-name="Group 508">
              <g id="Group_507" data-name="Group 507">
                <path id="Path_333" data-name="Path 333" d="M11.262,21.134a1.241,1.241,0,0,0,1.24,1.24h2.457a1.241,1.241,0,0,0,1.24-1.24V18.677a1.241,1.241,0,0,0-1.24-1.24H12.5" transform="translate(-11.262 -17.437)" fill="none" stroke="#5e308c" stroke-linecap="round" stroke-linejoin="round" stroke-miterlimit="10" stroke-width="1.5"/>
              </g>
            </g>
          </g>
        </g>
      </g>
    </g>
  </g>
</svg>
