<svg xmlns="http://www.w3.org/2000/svg" width="80.015" height="80" viewBox="0 0 80.015 80">
  <g id="Group_697" data-name="Group 697" transform="translate(-139.521 -1076.609)">
    <path id="Path_51" data-name="Path 51" d="M33.2,21.281a.785.785,0,1,0,0-1.57H29.27a.785.785,0,0,0-.707.434l-.914,1.828-2.408-4.225a.785.785,0,0,0-1.413.1l-2.312,5.789-2.486-8.081a.785.785,0,0,0-.686-.55.807.807,0,0,0-.767.432L15.44,19.711H12.785a.785.785,0,1,0,0,1.57h3.14a.785.785,0,0,0,.7-.434l1.478-2.957,2.564,8.332a.785.785,0,0,0,.718.55h.032a.785.785,0,0,0,.729-.494l2.536-6.341,2.334,4.082a.811.811,0,0,0,.7.393.785.785,0,0,0,.681-.434l1.353-2.7Z" transform="translate(149.275 1084.35)" fill="#fdce00"/>
    <path id="Path_52" data-name="Path 52" d="M61.233,39.012c5.588-6.612,8.1-12.4,8.1-18.679C69.333,8.741,61.6,0,51.333,0,42.2,0,36.88,6.224,34.667,9.6,32.453,6.224,27.131,0,18,0,7.733,0,0,8.741,0,20.333,0,32.981,10,41.84,25.123,55.249c1.939,1.719,3.98,3.532,6.087,5.425l-2.953,4.5a9.505,9.505,0,0,0-.42,9.867A9.276,9.276,0,0,0,36.1,80H70.568a9.276,9.276,0,0,0,8.267-4.963,9.505,9.505,0,0,0-.42-9.867ZM26.891,53.253C12.3,40.324,2.667,31.783,2.667,20.333,2.667,10.267,9.259,2.667,18,2.667c10.533,0,15.264,9.741,15.467,10.155a1.333,1.333,0,0,0,1.2.764h0a1.333,1.333,0,0,0,1.2-.765c.055-.1,4.889-10.153,15.467-10.153,8.741,0,15.333,7.6,15.333,17.667,0,5.584-2.169,10.621-7.2,16.645a9.324,9.324,0,0,0-13.973,1.945l-12.8,19.5C30.688,56.624,28.74,54.893,26.891,53.253Zm49.6,20.517a6.645,6.645,0,0,1-5.923,3.563H36.1a6.645,6.645,0,0,1-5.916-3.563,6.868,6.868,0,0,1,.3-7.135L47.72,40.388a6.685,6.685,0,0,1,11.227,0L76.181,66.636a6.868,6.868,0,0,1,.3,7.135Z" transform="translate(139.521 1076.609)" fill="#fff"/>
    <path id="Path_53" data-name="Path 53" d="M39.355,31A2.355,2.355,0,0,0,37,33.355V41.99a2.355,2.355,0,0,0,4.71,0V33.355A2.355,2.355,0,0,0,39.355,31Zm.785,10.99a.785.785,0,1,1-1.57,0V33.355a.785.785,0,0,1,1.57,0Z" transform="translate(154.107 1093.662)" fill="#fdce00"/>
    <path id="Path_54" data-name="Path 54" d="M39.355,50a2.355,2.355,0,1,0,2.355,2.355A2.355,2.355,0,0,0,39.355,50Zm0,3.14a.785.785,0,1,1,.785-.785A.785.785,0,0,1,39.355,53.14Z" transform="translate(154.107 1093.759)" fill="#fdce00"/>
  </g>
</svg>
