<svg xmlns="http://www.w3.org/2000/svg" width="91.317" height="92.119" viewBox="0 0 91.317 92.119">
  <g id="Group_696" data-name="Group 696" transform="translate(-139.269 -1395.32)">
    <path id="Path_303" data-name="Path 303" d="M2692.736,1901.254a5.545,5.545,0,0,0-.143-2.278l-3.02-10.874a5.442,5.442,0,0,0-.885-1.8l-5.569-7.5a.755.755,0,0,0-.051-.062,3.223,3.223,0,0,0-4.79,4.313l5.47,7.663v2.571a3.23,3.23,0,0,0-4.888,2.774v8.005c-.782,1.945-1.978,5.4-1.688,7.742.353,2.828,3.105,4.225,4.318,4.709v11.583a.787.787,0,1,0,1.575,0v-12.138a.789.789,0,0,0-.564-.755c-.034-.01-3.45-1.058-3.767-3.594-.262-2.121,1.061-5.67,1.642-7.1a.788.788,0,0,0,.058-.3v-8.158a1.659,1.659,0,0,1,3.313-.132v5.81a.787.787,0,0,0,1.575,0v-11.275a.786.786,0,0,0-.146-.458l-5.642-7.9a.789.789,0,0,0-.06-.074,1.648,1.648,0,0,1,2.406-2.254l5.544,7.471a3.871,3.871,0,0,1,.631,1.285l3.021,10.876a3.961,3.961,0,0,1,.1,1.626l-1.727,11.589a14.81,14.81,0,0,0-.024,4.145l1.554,11.439a.787.787,0,0,0,.779.682.757.757,0,0,0,.107-.007.787.787,0,0,0,.674-.886l-1.554-11.439a13.221,13.221,0,0,1,.021-3.7Z" transform="translate(-2462.46 -441.689)" fill="#fff" stroke="#fff" stroke-width="0.5"/>
    <path id="Path_304" data-name="Path 304" d="M979.389,1904.059v-8.005a3.232,3.232,0,0,0-4.888-2.775v-2.569l5.47-7.663a3.223,3.223,0,0,0-4.79-4.313.772.772,0,0,0-.051.062l-5.568,7.5a5.436,5.436,0,0,0-.886,1.8l-3.021,10.875a5.556,5.556,0,0,0-.143,2.281l1.726,11.587a13.229,13.229,0,0,1,.021,3.7l-1.554,11.439a.787.787,0,0,0,.674.886.757.757,0,0,0,.107.007.787.787,0,0,0,.779-.682l1.554-11.439a14.8,14.8,0,0,0-.024-4.147l-1.726-11.587a3.965,3.965,0,0,1,.1-1.628l3.021-10.876a3.862,3.862,0,0,1,.632-1.285l5.543-7.469a1.648,1.648,0,0,1,2.405,2.254.816.816,0,0,0-.059.073l-5.642,7.9a.789.789,0,0,0-.146.458v11.275a.787.787,0,0,0,1.575,0v-5.81a1.659,1.659,0,0,1,3.313.132v8.158a.79.79,0,0,0,.058.3c.581,1.427,1.9,4.976,1.642,7.1-.317,2.536-3.732,3.584-3.765,3.594a.787.787,0,0,0-.565.755v12.138a.787.787,0,1,0,1.575,0V1916.51c1.213-.484,3.966-1.881,4.318-4.709C981.367,1909.46,980.172,1906,979.389,1904.059Z" transform="translate(-825.934 -441.692)" fill="#fff" stroke="#fff" stroke-width="0.5"/>
    <path id="Path_305" data-name="Path 305" d="M1358.353,1988.774a.787.787,0,0,0-.74-.518h-8.148v-26.7a.787.787,0,0,0-.788-.787h-34.483a.787.787,0,0,0-.787.787v26.7h-1.838a.787.787,0,0,0-.74.518l-6.732,18.486a.787.787,0,0,0,.74,1.057h59.508a.787.787,0,0,0,.74-1.057Zm-43.371-26.43h32.908v25.911h-9.466V1969.11a.787.787,0,0,0-.787-.788h-12.4a.787.787,0,0,0-.787.788v19.146h-9.466Zm18.818,27.486v16.911h-12.323l2.757-16.911Zm-7.142-1.575,4.793-7.7,4.793,7.7Zm3.866-9.194-4.5,7.235v-14.47Zm1.855,0,4.471-7.186v14.372Zm-.927-1.49-4.774-7.673h9.548Zm3.923,12.26h9.577l2.747,16.911h-12.324Zm-23.255,0h10.518l-2.757,16.911h-13.919Zm37.174,16.911-2.748-16.911h10.515l6.158,16.911Z" transform="translate(-1149.664 -521.129)" fill="#fdce00" stroke="#fdce00" stroke-width="0.5"/>
    <path id="Path_306" data-name="Path 306" d="M1141.776,1045.5a10.221,10.221,0,0,1,4.58,5.355.787.787,0,0,0,.754.565h0a.789.789,0,0,0,.755-.565,10.221,10.221,0,0,1,4.579-5.354,7.624,7.624,0,0,0,3.9-6.58v-3.1a.787.787,0,0,0-.96-.768c-.236.053-.468.114-.7.177a8.392,8.392,0,0,0,.865-3.717v-3.1a.787.787,0,0,0-.979-.764,12.13,12.13,0,0,0-2.02.7,18.929,18.929,0,0,0,.332-3.667v-8.976a.787.787,0,1,0-1.575,0v5.359a8.936,8.936,0,0,0-4.155,4.3,8.937,8.937,0,0,0-4.155-4.3v-5.359a.788.788,0,0,0-1.575,0v8.976a20.2,20.2,0,0,0,.284,3.681,12.121,12.121,0,0,0-2.051-.714.788.788,0,0,0-.979.764v3.1a8.394,8.394,0,0,0,.864,3.717c-.23-.064-.462-.124-.7-.177a.787.787,0,0,0-.961.768v3.1A7.623,7.623,0,0,0,1141.776,1045.5Zm4.6-17.67a.787.787,0,0,0,.769.625h0a.789.789,0,0,0,.77-.624,8.669,8.669,0,0,1,3.384-4.972v1.824a12.2,12.2,0,0,1-.765,4.832,11.652,11.652,0,0,0-3.43,4,11.648,11.648,0,0,0-3.429-4,12.287,12.287,0,0,1-.685-4.833v-1.824A8.668,8.668,0,0,1,1146.381,1027.832Zm-6.131,1.642a9.847,9.847,0,0,1,1.926.923l.031.021h0a10.114,10.114,0,0,1,4.142,5.354.787.787,0,0,0,.76.587h0a.789.789,0,0,0,.761-.585,10.112,10.112,0,0,1,4.143-5.356h0l.031-.021a9.84,9.84,0,0,1,1.926-.923v2.041a6.435,6.435,0,0,1-2.089,4.841,12.01,12.01,0,0,0-4.773,4.7,12.008,12.008,0,0,0-4.773-4.7,6.435,6.435,0,0,1-2.089-4.841Zm-.794,7.372a11.762,11.762,0,0,1,2.015.828l.037.021h0a10.245,10.245,0,0,1,4.848,5.5.787.787,0,0,0,1.513,0,10.143,10.143,0,0,1,4.848-5.5h0l.037-.021a11.758,11.758,0,0,1,2.015-.828v2.076a6.047,6.047,0,0,1-3.1,5.212,12.021,12.021,0,0,0-4.555,4.576,12.021,12.021,0,0,0-4.555-4.576,6.046,6.046,0,0,1-3.1-5.212Z" transform="translate(-990.79 383.194)" fill="#fff" stroke="#fff" stroke-width="0.5"/>
    <path id="Path_307" data-name="Path 307" d="M1330.992,965.714a.787.787,0,0,0,.787-.788V957.7a.787.787,0,1,0-1.575,0v7.23A.787.787,0,0,0,1330.992,965.714Z" transform="translate(-1174.671 438.661)" fill="#fff" stroke="#fff" stroke-width="0.5"/>
    <path id="Path_308" data-name="Path 308" d="M1408.556,1199.1l-2.551,11.625a.787.787,0,1,0,1.538.338l2.476-11.284,18.882-10.83,18.876,10.83,2.476,11.284a.787.787,0,1,0,1.538-.338l-2.551-11.625a.786.786,0,0,0-.377-.514l-10.762-6.175v-10.3h19.494v48.742a.787.787,0,0,0,1.575,0v-49.529a11.322,11.322,0,0,0-22.643,0v10.179l-7.233-4.15a.787.787,0,0,0-.784,0l-19.576,11.229A.788.788,0,0,0,1408.556,1199.1Zm39.292-27.519a9.758,9.758,0,0,1,9.712,8.959h-19.424A9.758,9.758,0,0,1,1447.848,1171.58Z" transform="translate(-1247.126 234.92)" fill="#fff" stroke="#fff" stroke-width="0.5"/>
    <path id="Path_309" data-name="Path 309" d="M1832.021,1709.194a4.208,4.208,0,1,0,4.207-4.208A4.212,4.212,0,0,0,1832.021,1709.194Zm6.84,0a2.633,2.633,0,1,1-2.633-2.633A2.636,2.636,0,0,1,1838.861,1709.194Z" transform="translate(-1654.456 -276.575)" fill="#fff" stroke="#fff" stroke-width="0.5"/>
  </g>
</svg>
