<svg xmlns="http://www.w3.org/2000/svg" xmlns:xlink="http://www.w3.org/1999/xlink" width="89.516" height="93.937" viewBox="0 0 89.516 93.937">
  <defs>
    <clipPath id="clip-path">
      <rect id="Rectangle_417" data-name="Rectangle 417" width="89.515" height="93.937" fill="none"/>
    </clipPath>
  </defs>
  <g id="Group_698" data-name="Group 698" transform="translate(-724.684 -1072.359)">
    <g id="Group_682" data-name="Group 682" transform="translate(724.684 1072.359)" clip-path="url(#clip-path)">
      <path id="Path_1850" data-name="Path 1850" d="M24.3,30.082a1.011,1.011,0,1,0-.962-1.059v.049a.987.987,0,0,0,.963,1.011" transform="translate(-3.094 -3.721)" fill="#fff"/>
      <path id="Path_1851" data-name="Path 1851" d="M23.361,42.19l.035-.007v0a4.243,4.243,0,0,1,.963-.121,4.551,4.551,0,0,1,0,9.092,4.067,4.067,0,0,1-.7-.061.98.98,0,0,0-1.118.822l0,.022a1.02,1.02,0,0,0,.8,1.177,5.834,5.834,0,0,0,1.02.087,6.28,6.28,0,0,0,5.2-3.863,6.832,6.832,0,0,0-.721-6.644,6.12,6.12,0,0,0-5.9-2.536,1.042,1.042,0,0,0-.736,1.247.988.988,0,0,0,1.154.788" transform="translate(-2.941 -5.316)" fill="#ffc100"/>
      <path id="Path_1852" data-name="Path 1852" d="M15.46,33.329a.87.87,0,0,0,.062.065.888.888,0,0,0,1.257-.024,10.536,10.536,0,0,1,2.406-1.8,1.009,1.009,0,0,0,.579-.859,1.025,1.025,0,0,0-.462-.932.925.925,0,0,0-1,0,12.284,12.284,0,0,0-2.84,2.111,1.045,1.045,0,0,0,0,1.435Z" transform="translate(-2.012 -3.929)" fill="#fff"/>
      <path id="Path_1853" data-name="Path 1853" d="M47.1,14.088l0,0a1.011,1.011,0,1,0-.962-1.059c0,.016,0,.032,0,.049a.987.987,0,0,0,.958,1.008" transform="translate(-6.118 -1.6)" fill="#fff"/>
      <path id="Path_1854" data-name="Path 1854" d="M21.511,48.391a3.036,3.036,0,0,0,0-6.061H15.225a2.4,2.4,0,0,1-2.33-2.445V36.419a6.662,6.662,0,0,0-1.421-4.154,6.071,6.071,0,0,0-4.813-2.342h-3.8a3.036,3.036,0,0,0,0,6.061H6.343a.791.791,0,0,1,.77.808v3.131a8.762,8.762,0,0,0,1.713,5.213h0A7.955,7.955,0,0,0,15.2,48.391ZM20.186,44.33h1.28a1.011,1.011,0,0,1,0,2.02h-1.28Zm-4.159,0h2.235v2.02H15.769ZM4.427,33.972H2.858v0a1.011,1.011,0,0,1,0-2.02H4.427Zm3.331.455a2.525,2.525,0,0,0-1.405-.455V31.956h.308v0a4.087,4.087,0,0,1,2.647.988ZM8.9,36.045l1.608-1.515a4.584,4.584,0,0,1,.414,1.9v1.7H9V36.773a3.03,3.03,0,0,0-.1-.728m.867,6.964a6.79,6.79,0,0,1-.742-2.862h1.926a4.752,4.752,0,0,0,.357,1.535L9.772,42.976Zm4.069,3.209A6.144,6.144,0,0,1,10.954,44.6l1.531-1.283a4.258,4.258,0,0,0,1.607.88Z" transform="translate(0 -3.968)" fill="#ffc100"/>
      <path id="Path_1855" data-name="Path 1855" d="M90.367,69.812a5.57,5.57,0,0,1,0-3.274l.568-1.809a7.51,7.51,0,0,0-2.541-8.183l-1.457-1.112A5.239,5.239,0,0,1,85.1,52.809l-.563-1.8A7,7,0,0,0,77.9,45.958H76.093a4.832,4.832,0,0,1-2.965-1.011l-1.492-1.111a6.687,6.687,0,0,0-8.192,0l-1.463,1.111a4.832,4.832,0,0,1-2.965,1.011H58.3l1.271-4.678a13.211,13.211,0,0,0-7.961-15.992l-.491-.182a13.2,13.2,0,0,0-11.465,1.243l-2.888,1.8-.1.05V23.145h3.36A17.5,17.5,0,0,0,56.4,11.175l2-5.768a4.2,4.2,0,0,0-.6-3.869A3.769,3.769,0,0,0,54.357.022L41.092,1.648A11.426,11.426,0,0,0,32.3,8,12.239,12.239,0,0,0,33.42,20.61L34.8,22.48v5.6h-.106l-3.85-2.162a13.116,13.116,0,0,0-2.715-1.161.929.929,0,0,0-.97.217,1.041,1.041,0,0,0-.273,1,.985.985,0,0,0,.714.723,11.081,11.081,0,0,1,2.33,1.011l3.85,2.162a3.959,3.959,0,0,0,1.926.5h.048a3.893,3.893,0,0,0,2.012-.586l2.888-1.8a11.332,11.332,0,0,1,9.857-1.011l.481.173a11.232,11.232,0,0,1,6.739,13.532l-1.444,5.274A7.036,7.036,0,0,0,50.6,51.01l-.587,1.778a5.267,5.267,0,0,1-1.839,2.647l-1.463,1.111a7.52,7.52,0,0,0-2.534,8.178l.559,1.8a4.749,4.749,0,0,1,.183.8A6.74,6.74,0,0,1,43,67.1l-4.977-1.313a9.193,9.193,0,0,0-4.563,0L28.469,67.1l-.043.01a7.429,7.429,0,0,1-8.967-5.475L15.242,46.208a.99.99,0,0,0-.689-.749.933.933,0,0,0-.954.286,1.049,1.049,0,0,0-.206,1.018L17.619,62.2a9.454,9.454,0,0,0,9,7.153,9.188,9.188,0,0,0,2.32-.3l4.977-1.3a7.244,7.244,0,0,1,3.629,0l4.987,1.313a8.774,8.774,0,0,0,2.342.283,3.561,3.561,0,0,1-.106.455l-.559,1.809a7.52,7.52,0,0,0,2.532,8.183l1.463,1.11a5.267,5.267,0,0,1,1.839,2.647L50.6,85.36a7,7,0,0,0,6.632,5.052h1.781a4.829,4.829,0,0,1,2.993,1.011l1.463,1.111a6.679,6.679,0,0,0,8.192,0l1.463-1.111a4.832,4.832,0,0,1,2.965-1.011H77.9a7,7,0,0,0,6.632-5.052l.568-1.809A5.248,5.248,0,0,1,86.933,80.9l1.453-1.115a7.51,7.51,0,0,0,2.542-8.183ZM35.047,19.581l-.154-.2a10.137,10.137,0,0,1-.9-10.437,9.467,9.467,0,0,1,7.336-5.283L54.578,2.034a1.886,1.886,0,0,1,1.706.759,2.1,2.1,0,0,1,.305,1.919l-2,5.768A15.574,15.574,0,0,1,40.119,21.128h-3.34a8.908,8.908,0,0,1,2.984-5.789,1.045,1.045,0,0,0,.077-1.424.954.954,0,0,0-.652-.361.929.929,0,0,0-.7.23,10.936,10.936,0,0,0-3.437,5.8M87.261,78.187,85.8,79.3a7.226,7.226,0,0,0-2.522,3.627l-.554,1.8a5.073,5.073,0,0,1-4.813,3.667H76.1a6.652,6.652,0,0,0-4.12,1.424L70.5,90.926a4.836,4.836,0,0,1-5.93,0l-1.463-1.111a6.647,6.647,0,0,0-4.092-1.394H57.3a5.073,5.073,0,0,1-4.813-3.667l-.561-1.8A7.155,7.155,0,0,0,49.389,79.3l-1.511-1.152a5.422,5.422,0,0,1-1.828-5.927l.559-1.735a8.141,8.141,0,0,0,.308-1.778,1.05,1.05,0,0,0,.077-.546.656.656,0,0,0-.068-.192,7.491,7.491,0,0,0-.317-2.02l-.559-1.809a5.418,5.418,0,0,1,1.877-5.961l1.463-1.111a7.234,7.234,0,0,0,2.474-3.622l.559-1.8a5.073,5.073,0,0,1,4.813-3.667h1.781a6.654,6.654,0,0,0,4.158-1.435l1.463-1.111a4.836,4.836,0,0,1,5.93,0L72,46.555a6.648,6.648,0,0,0,4.094,1.395h1.8a5.074,5.074,0,0,1,4.809,3.663l.559,1.8A7.155,7.155,0,0,0,85.8,57.067l1.463,1.16a5.422,5.422,0,0,1,1.829,5.92l-.559,1.768a7.682,7.682,0,0,0,0,4.5l.559,1.809a5.423,5.423,0,0,1-1.829,5.961" transform="translate(-1.769 0)" fill="#fff"/>
      <path id="Path_1856" data-name="Path 1856" d="M92.517,70.589a3.343,3.343,0,0,0-1.136-3.657L89.917,65.81a9.181,9.181,0,0,1-3.232-4.665l-.568-1.822A3.114,3.114,0,0,0,83.152,57.1H81.343a8.6,8.6,0,0,1-5.2-1.809l-1.463-1.122a3.047,3.047,0,0,0-3.667,0l-1.513,1.154A8.6,8.6,0,0,1,64.268,57.1H62.487a3.136,3.136,0,0,0-2.974,2.243l-.559,1.8A9.244,9.244,0,0,1,55.719,65.8l-1.463,1.122A3.343,3.343,0,0,0,53.12,70.58l.559,1.809a9.664,9.664,0,0,1,0,5.768l-.549,1.809a3.355,3.355,0,0,0,1.128,3.657l1.475,1.142a9.246,9.246,0,0,1,3.225,4.668l.559,1.789a3.137,3.137,0,0,0,2.974,2.255h1.78a8.6,8.6,0,0,1,5.256,1.789l1.463,1.122A3.034,3.034,0,0,0,72.818,97a2.991,2.991,0,0,0,1.839-.626l1.463-1.111a8.6,8.6,0,0,1,5.227-1.789h1.81a3.146,3.146,0,0,0,2.974-2.243l.56-1.806a9.187,9.187,0,0,1,3.225-4.684l1.461-1.118a3.343,3.343,0,0,0,1.136-3.657l-.556-1.8a9.664,9.664,0,0,1,0-5.768Zm-2.253,11.4-1.475,1.122a11.238,11.238,0,0,0-3.935,5.677L84.3,90.592a1.189,1.189,0,0,1-1.136.859H81.35a10.47,10.47,0,0,0-6.392,2.169L73.5,94.741a1.166,1.166,0,0,1-1.405,0l-1.475-1.122a10.426,10.426,0,0,0-6.354-2.169H62.518a1.189,1.189,0,0,1-1.136-.859l-.6-1.768a11.22,11.22,0,0,0-3.928-5.678l-1.463-1.122a1.256,1.256,0,0,1-.434-1.394l.559-1.808a11.806,11.806,0,0,0,0-7.022l-.559-1.809a1.279,1.279,0,0,1,.434-1.4l1.463-1.109A11.308,11.308,0,0,0,60.795,61.8l.559-1.809a1.2,1.2,0,0,1,1.136-.867h1.783a10.414,10.414,0,0,0,6.382-2.162l1.463-1.122a1.166,1.166,0,0,1,1.405,0l1.461,1.118a10.46,10.46,0,0,0,6.363,2.162h1.809a1.2,1.2,0,0,1,1.146.828l.559,1.809A11.238,11.238,0,0,0,88.8,67.436l1.463,1.114a1.3,1.3,0,0,1,.423,1.4l-.559,1.809a11.806,11.806,0,0,0,0,7.022l.559,1.809,0,0a1.277,1.277,0,0,1-.423,1.394" transform="translate(-7.022 -7.101)" fill="#fff"/>
      <path id="Path_1857" data-name="Path 1857" d="M81.809,66.844h-15.4a2.262,2.262,0,0,0-2.195,2.3V80.8a2.262,2.262,0,0,0,2.195,2.3h1.652v6.48a2.152,2.152,0,0,0,2.1,2.2c.173,0,3.556-.848,3.556-.848A3.609,3.609,0,0,0,76.35,87.4V84a.879.879,0,0,1,.857-.9h4.64a4.621,4.621,0,0,0,4.5-4.733v-6.82h0a4.837,4.837,0,0,0-1.334-3.344,4.388,4.388,0,0,0-3.2-1.364M68.062,81.089l-1.656-.021a.286.286,0,0,1-.27-.283V69.148a.286.286,0,0,1,.27-.283h1.656Zm16.351-2.7a2.646,2.646,0,0,1-2.57,2.7H77.2s-2.771,1.3-2.782,2.9v3.4a1.6,1.6,0,0,1-1.174,1.535l-3.042.788a.148.148,0,0,1-.094.021.146.146,0,0,1-.128-.162V68.88H81.857a2.635,2.635,0,0,1,2.57,2.689Z" transform="translate(-8.514 -8.863)" fill="#ffc100"/>
      <path id="Path_1858" data-name="Path 1858" d="M52.006,11.366a1.011,1.011,0,1,0-.962-1.059c0,.016,0,.032,0,.049a.987.987,0,0,0,.963,1.011" transform="translate(-6.768 -1.239)" fill="#fff"/>
    </g>
  </g>
</svg>
