<svg xmlns="http://www.w3.org/2000/svg" width="13.676" height="19.195" viewBox="0 0 13.676 19.195">
  <g id="Group_692" data-name="Group 692" transform="translate(-813.638 -9513.205)">
    <path id="Path_1868" data-name="Path 1868" d="M803.157,1448.787l2.532,6.237-2.848-.6.01,0-1.626,2.413-2.532-6.237Z" transform="translate(20.652 8075.552)" fill="#24a005"/>
    <path id="Path_1869" data-name="Path 1869" d="M433.4,1453.967l2.85-.555,1.589,2.43,2.62-6.2-4.439-1.875Z" transform="translate(381.207 8076.559)" fill="#63c215"/>
    <path id="Path_1870" data-name="Path 1870" d="M371.916,596.111c0,.353-.431.668-.484,1.007s.258.78.151,1.107-.616.5-.773.807,0,.819-.2,1.1-.739.283-.984.529-.247.78-.529.984-.788.041-1.1.2-.474.665-.807.773-.76-.206-1.107-.151-.653.484-1.007.484-.668-.431-1.007-.484-.78.258-1.107.151-.5-.616-.807-.773-.819,0-1.1-.2-.283-.739-.529-.984-.78-.247-.984-.529-.041-.788-.2-1.1-.665-.474-.773-.807.206-.76.151-1.107-.484-.654-.484-1.007.431-.668.484-1.007-.258-.78-.151-1.107.616-.5.773-.807,0-.819.2-1.1.739-.283.984-.528.247-.78.529-.984.788-.041,1.1-.2.474-.665.807-.773.76.206,1.107.151.653-.484,1.007-.484.668.431,1.007.484.78-.258,1.107-.151.5.616.807.773.819,0,1.1.2.283.739.529.984.78.247.984.528.041.788.2,1.1.665.474.773.807-.206.76-.151,1.107.484.653.484,1.007" transform="translate(455.398 8923.932)" fill="#79bc0b"/>
    <path id="Path_1871" data-name="Path 1871" d="M502.072,728a5.107,5.107,0,1,1-5.107-5.107A5.107,5.107,0,0,1,502.072,728" transform="translate(323.511 8792.045)" fill="#fff"/>
    <path id="Path_1872" data-name="Path 1872" d="M538.227,764.632a4.626,4.626,0,1,1-4.626-4.626,4.626,4.626,0,0,1,4.626,4.626" transform="translate(286.876 8755.41)" fill="#79bc0b"/>
    <path id="Path_1873" data-name="Path 1873" d="M668.736,900.344l-3.389,4.241-.362.453-.461-.387-1.569-1.317,1.019-1.019.877,1.045,2.573-3.964Z" transform="translate(154.631 8617.826)" fill="#fff"/>
  </g>
</svg>
