<svg xmlns="http://www.w3.org/2000/svg" width="69.444" height="69.441" viewBox="0 0 69.444 69.441">
  <g id="Group_713" data-name="Group 713" transform="translate(-309.611 -425.559)">
    <path id="Path_310" data-name="Path 310" d="M66.486,30.876a8.631,8.631,0,1,0-8.632,8.633,8.631,8.631,0,0,0,8.632-8.633Zm-15.218,0a6.587,6.587,0,1,1,6.587,6.588A6.587,6.587,0,0,1,51.267,30.876Z" transform="translate(286.479 413.644)" fill="#5e308c"/>
    <path id="Path_311" data-name="Path 311" d="M73.932,72.614,65.6,50.768a1.023,1.023,0,0,0-.955-.658H48.873c.1-.157.192-.31.289-.467C55.23,39.6,58.284,30.808,58.24,23.525a18.963,18.963,0,1,0-37.925,0c-.044,7.286,3.01,16.076,9.078,26.121.1.159.192.312.289.467H13.911a1.023,1.023,0,0,0-.955.658L4.624,72.614A1.021,1.021,0,0,0,5.579,74h67.4a1.021,1.021,0,0,0,.955-1.387ZM22.36,23.521a16.918,16.918,0,0,1,33.836,0c.088,14.523-13.487,32.431-16.918,36.726-3.431-4.293-17.006-22.2-16.918-36.728ZM38.5,62.527a1.022,1.022,0,0,0,1.557,0,108.479,108.479,0,0,0,7.535-10.373H63.939l1.308,3.432L33.3,66.947,21.915,52.152h9.048A108.48,108.48,0,0,0,38.5,62.527Zm-5.233,6.6h.006L52.33,62.352l7.392,9.6h-34.4ZM14.616,52.152h4.72l11.94,15.515L19.218,71.956H7.062ZM62.3,71.956,54.355,61.628l11.624-4.134,5.516,14.462Z" transform="translate(305.055 420.999)" fill="#5e308c"/>
  </g>
</svg>
