<svg xmlns="http://www.w3.org/2000/svg" width="60.452" height="68.055" viewBox="0 0 60.452 68.055">
  <g id="Group_710" data-name="Group 710" transform="translate(-1012.306 -431.964)">
    <path id="Path_334" data-name="Path 334" d="M195.052,135.467a1,1,0,0,0-.992-1h-.005a1,1,0,0,0-1,.992l0,.5a4.076,4.076,0,0,0-2.52-.85c-2.351,0-4.783,2.034-4.783,5.438,0,3.1,2.1,5.63,4.687,5.63a4.1,4.1,0,0,0,2.93-1.271,3.28,3.28,0,0,0,.613.862,2.841,2.841,0,0,0,2.017.866,4.408,4.408,0,0,0,4.078-2.9,9,9,0,0,0,.505-5.956l-.009-.031a10.045,10.045,0,1,0-15.8,10.822,10.127,10.127,0,0,0,5.9,2.124h.028a1,1,0,0,0,.027-1.993,8.1,8.1,0,0,1-7.564-6.011,8.051,8.051,0,0,1,15.49-4.384,7.391,7.391,0,0,1-.435,4.692A2.42,2.42,0,0,1,196,144.64a.883.883,0,0,1-.6-.279,1.372,1.372,0,0,1-.383-.957Zm-4.613,8.716c-1.3,0-2.693-1.39-2.693-3.636,0-2.156,1.418-3.444,2.789-3.444,1.433,0,2.446,1.332,2.5,3.258l0,.364C192.956,142.65,191.822,144.183,190.439,144.183Z" transform="translate(851.637 318.727)" fill="#5e308c"/>
    <path id="Path_335" data-name="Path 335" d="M89.055,63.781h0V29.772A4.346,4.346,0,0,0,87.771,26.7l0,0,0,0-.005-.005-3.918-3.845V16.353c0-.551-.446,1-1,1s-1-1.547-1-1V31.2L63.736,49.278l-2.849-1.565a4.254,4.254,0,0,0-4.118,0l-2.849,1.565L35.808,31.2V13.989a2.329,2.329,0,0,1,2.326-2.326H79.523a2.329,2.329,0,0,1,2.326,2.326v2.364a1,1,0,0,0,1.994,0V13.989a4.324,4.324,0,0,0-4.32-4.32h-9.1l-8.691-8.53L61.7,1.112a4.26,4.26,0,0,0-5.741,0l-.029.027-8.691,8.53h-9.1a4.324,4.324,0,0,0-4.32,4.32v8.856L29.9,26.69l0,.005,0,0,0,0A4.346,4.346,0,0,0,28.6,29.772V41.148a1,1,0,0,0,1.994,0V29.772a2.32,2.32,0,0,1,.15-.811l3.36,3.354L52.1,50.278,30.6,62.1V41.148c0-.551-1.994,0-1.994,0s0,3.794,0,4.344V63.78h0c0,.005,0,.01,0,.016a4.279,4.279,0,0,0,4.274,4.258H74.025c.551,0-.245-.269-.245-.82s.8-1.174.245-1.174H32.878a2.283,2.283,0,0,1-2.211-1.73L54.226,51.385l3.5-1.926a2.27,2.27,0,0,1,2.2,0l3.5,1.925L86.991,64.331a2.283,2.283,0,0,1-2.211,1.73H74.025a1,1,0,0,0,0,1.994H84.78A4.279,4.279,0,0,0,89.054,63.8c0-.005,0-.01,0-.016ZM57.311,2.577a2.273,2.273,0,0,1,3.037,0l7.226,7.092H50.085Zm-23.5,26.629-1.8-1.8,1.8-1.769Zm49.736,3.109,3.36-3.355a2.321,2.321,0,0,1,.15.811V62.095l-21.5-11.817Zm2.1-4.909-1.8,1.8V25.638Z" transform="translate(983.703 431.964)" fill="#5e308c"/>
  </g>
</svg>
