<svg xmlns="http://www.w3.org/2000/svg" width="18.107" height="18.112" viewBox="0 0 18.107 18.112">
  <g id="Group_685" data-name="Group 685" transform="translate(-0.068)">
    <path id="Path_1862" data-name="Path 1862" d="M17.559,13.1c-.759-.767-1.518-1.522-2.255-2.251a1.823,1.823,0,0,0-2.711,0l-.1.1c-.4.4-.815.808-1.215,1.219-.082-.041-.165-.082-.243-.123a5.434,5.434,0,0,1-.512-.273,13.794,13.794,0,0,1-3.38-3.081A7.857,7.857,0,0,1,6.005,6.9c.355-.344.7-.7,1.043-1.039L7.31,5.6a1.839,1.839,0,0,0,0-2.763c-.254-.258-.516-.516-.767-.767L6.2,1.735,5.848,1.38C5.594,1.122,5.328.856,5.063.6A1.933,1.933,0,0,0,3.706,0,1.918,1.918,0,0,0,2.352.6c-.191.191-.385.381-.568.568-.269.273-.55.553-.83.823a2.785,2.785,0,0,0-.871,1.87A7.215,7.215,0,0,0,.613,6.88a17.531,17.531,0,0,0,3.111,5.19,19.375,19.375,0,0,0,6.368,4.984,9.435,9.435,0,0,0,3.627,1.051c.082,0,.165.007.243.007a2.989,2.989,0,0,0,2.322-.995c.254-.284.527-.55.815-.83.146-.142.3-.288.445-.437A1.829,1.829,0,0,0,17.559,13.1Zm-.725,2.042c-.142.142-.288.284-.43.426-.288.28-.587.572-.864.882a2.025,2.025,0,0,1-1.757.654,8.452,8.452,0,0,1-3.242-.95A18.366,18.366,0,0,1,4.5,11.431,16.5,16.5,0,0,1,1.563,6.54a6.016,6.016,0,0,1-.471-2.591,1.784,1.784,0,0,1,.561-1.211c.288-.288.572-.576.849-.853.183-.183.37-.374.557-.561a.952.952,0,0,1,.647-.31.97.97,0,0,1,.651.31c.258.254.523.52.774.774.12.12.236.239.355.355l.337.337.763.763a.834.834,0,0,1,0,1.339c-.086.09-.176.176-.262.265-.363.366-.74.748-1.118,1.111a.785.785,0,0,0-.187.927A8.663,8.663,0,0,0,6.349,9.329a14.909,14.909,0,0,0,3.627,3.3,6.412,6.412,0,0,0,.606.325c.12.056.228.112.337.172a.819.819,0,0,0,.4.108h0a.814.814,0,0,0,.587-.273c.423-.437.864-.871,1.286-1.294l.1-.1a.951.951,0,0,1,.643-.31.969.969,0,0,1,.647.31c.733.729,1.492,1.484,2.247,2.247A.837.837,0,0,1,16.834,15.14Z" transform="translate(0)"/>
  </g>
</svg>
