<svg xmlns="http://www.w3.org/2000/svg" width="67.594" height="70.07" viewBox="0 0 67.594 70.07">
  <g id="Group_695" data-name="Group 695" transform="translate(-729.615 -1418.93)">
    <path id="Path_1859" data-name="Path 1859" d="M230.913,76.745l.512-.57a9.617,9.617,0,0,0-14.308-12.856l-.512.57a11.678,11.678,0,0,0-15.142,1.449c-.027.029-.053.059-.078.09a10.3,10.3,0,0,1,.256,16.67,10.307,10.307,0,0,1-2.022,14.4,18.422,18.422,0,0,0-7.294,12.811l-.4,4.594a1.365,1.365,0,0,0,1.058-.363l4.065-3.8a17.132,17.132,0,0,1,12.942-4.295,11.671,11.671,0,0,0,12.424-9.315,11.681,11.681,0,0,0,8.5-19.386Z" transform="translate(562.322 1367.057)" fill="none" stroke="#fff" stroke-width="2"/>
    <path id="Path_1860" data-name="Path 1860" d="M52.5,21.983a11.7,11.7,0,0,0-10.3-11.6V9.617a9.617,9.617,0,0,0-19.235,0v.767a11.7,11.7,0,0,0-10.3,11.6,11.571,11.571,0,0,0,3.672,8.5,11.671,11.671,0,0,0,3.015,15.232A17.131,17.131,0,0,1,26.1,57.563l.988,11.254a1.374,1.374,0,0,0,1.369,1.254H36.7a1.374,1.374,0,0,0,1.369-1.254l.988-11.254a17.13,17.13,0,0,1,6.756-11.844,11.671,11.671,0,0,0,3.015-15.232A11.572,11.572,0,0,0,52.5,21.983ZM44.155,43.529A19.884,19.884,0,0,0,36.324,57.3c-.024.243.122-1.386-.88,10.025H29.718l-.879-10.008a19.881,19.881,0,0,0-7.832-13.785,8.924,8.924,0,0,1-1.754-12.478,1.374,1.374,0,0,0-.273-1.924,8.931,8.931,0,0,1,5.358-16.076,1.374,1.374,0,0,0,1.374-1.374V9.617a6.881,6.881,0,0,1,5.5-6.731V19.615l-2.753-1.573a1.374,1.374,0,1,0-1.363,2.386l4.116,2.352v3.7l-2.753-1.573A1.374,1.374,0,1,0,27.091,27.3l4.116,2.352v3.7l-2.753-1.573a1.374,1.374,0,1,0-1.363,2.386l4.116,2.352v3.7l-2.753-1.573a1.374,1.374,0,1,0-1.363,2.386l4.116,2.352v3.324a1.374,1.374,0,1,0,2.748,0V43.389l4.116-2.352a1.374,1.374,0,1,0-1.363-2.386l-2.753,1.573v-3.7l4.116-2.352a1.374,1.374,0,0,0-1.363-2.386l-2.753,1.573v-3.7L38.071,27.3a1.374,1.374,0,0,0-1.363-2.386l-2.753,1.573v-3.7l4.116-2.352a1.374,1.374,0,0,0-1.363-2.386l-2.753,1.573V2.886a6.881,6.881,0,0,1,5.5,6.731v2.061a1.374,1.374,0,0,0,1.374,1.374,8.931,8.931,0,0,1,5.358,16.076,1.374,1.374,0,0,0-.273,1.924,8.924,8.924,0,0,1-1.754,12.478Z" transform="translate(716.956 1418.93)" fill="#fdc100"/>
  </g>
</svg>
