<svg xmlns="http://www.w3.org/2000/svg" width="34.184" height="35.359" viewBox="0 0 34.184 35.359">
  <g id="Growth" transform="translate(-3.5 -1.5)">
    <path id="Path_1816" data-name="Path 1816" d="M33,22.805a5.373,5.373,0,0,1,.758-.705A2.706,2.706,0,0,1,33,21.78Z" transform="translate(-11.816 -8.059)" fill="none" stroke="#60328f" stroke-width="1"/>
    <path id="Path_1817" data-name="Path 1817" d="M30.478,22.805V21.78a2.706,2.706,0,0,1-.758.32,5.373,5.373,0,0,1,.758.705Z" transform="translate(-10.479 -8.059)" fill="none" stroke="#60328f" stroke-width="1"/>
    <path id="Path_1818" data-name="Path 1818" d="M4,45.241H6.37V37.78L4,35.41Z" transform="translate(0 -13.612)" fill="none" stroke="#60328f" stroke-width="1"/>
    <path id="Path_1819" data-name="Path 1819" d="M40.926,37.485a.928.928,0,0,0-.711-.213c-.474.172-7.768,3.342-12.633,5.458a1.763,1.763,0,0,1-1.138.427h-7.7V41.97h7.7a.593.593,0,0,0,.593-.593v-.83l-8.32-4.438L14,38.208v7.52l10.6,4.462L40.849,38.978a.94.94,0,0,0,.409-.77.93.93,0,0,0-.332-.723Z" transform="translate(-4.074 -13.898)" fill="none" stroke="#60328f" stroke-width="1"/>
    <path id="Path_1820" data-name="Path 1820" d="M10,38h1.185v9.481H10Z" transform="translate(-2.445 -14.668)" fill="none" stroke="#60328f" stroke-width="1"/>
    <path id="Path_1821" data-name="Path 1821" d="M30.778,9.862c.966,0,1.778-1.357,1.778-2.963,0-1.221-1.185-2.329-1.778-2.809C30.185,4.57,29,5.678,29,6.9,29,8.5,29.812,9.862,30.778,9.862Z" transform="translate(-10.186 -0.852)" fill="none" stroke="#60328f" stroke-width="1"/>
    <path id="Path_1822" data-name="Path 1822" d="M23.816,16.889c1.315.924,2.892,1.031,3.443.243s-.089-2.234-1.4-3.152c-1-.7-2.589-.367-3.324-.16.053.764.284,2.37,1.286,3.069Z" transform="translate(-7.55 -4.708)" fill="none" stroke="#60328f" stroke-width="1"/>
    <path id="Path_1823" data-name="Path 1823" d="M33.352,17.13c.551.788,2.127.681,3.443-.243a4.3,4.3,0,0,0,1.292-3.069c-.735-.207-2.329-.545-3.33.16-1.315.918-1.961,2.364-1.4,3.152Z" transform="translate(-11.877 -4.707)" fill="none" stroke="#60328f" stroke-width="1"/>
    <path id="Path_1824" data-name="Path 1824" d="M25.854,23.31c-1-.7-2.589-.367-3.324-.154.053.758.284,2.364,1.286,3.069,1.315.918,2.892,1.031,3.443.243a1.541,1.541,0,0,0,.041-1.416,3.967,3.967,0,0,0-1.446-1.742Z" transform="translate(-7.55 -8.51)" fill="none" stroke="#60328f" stroke-width="1"/>
    <path id="Path_1825" data-name="Path 1825" d="M31,31h1.185v1.778H31Z" transform="translate(-11.001 -11.816)" fill="none" stroke="#60328f" stroke-width="1"/>
    <path id="Path_1826" data-name="Path 1826" d="M12.067,21.988a6.473,6.473,0,0,1,3.253-.361,5.783,5.783,0,0,1,1.588.48l-.065-.847.652-.19a7.164,7.164,0,0,0-2-.616,7.623,7.623,0,0,0-3.858.427Z" transform="translate(-3.113 -7.485)" fill="none" stroke="#60328f" stroke-width="1"/>
    <path id="Path_1827" data-name="Path 1827" d="M16.026,25.507a4.577,4.577,0,0,1,1.191-.213A7.443,7.443,0,0,1,17,24.12a5.975,5.975,0,0,0-1.321.249,6.528,6.528,0,0,0-3.917,3.484l1.078.492A5.392,5.392,0,0,1,16.026,25.507Z" transform="translate(-3.162 -9.013)" fill="none" stroke="#60328f" stroke-width="1"/>
    <path id="Path_1828" data-name="Path 1828" d="M42.48,21.071l.658.2-.065.841a5.744,5.744,0,0,1,1.582-.48,6.473,6.473,0,0,1,3.253.361l.427-1.108a7.688,7.688,0,0,0-3.858-.427,7.163,7.163,0,0,0-2,.616Z" transform="translate(-15.678 -7.486)" fill="none" stroke="#60328f" stroke-width="1"/>
    <path id="Path_1829" data-name="Path 1829" d="M47.4,28.345l1.078-.492a6.528,6.528,0,0,0-3.917-3.484,6.281,6.281,0,0,0-1.315-.249,7.012,7.012,0,0,1-.231,1.173,4.622,4.622,0,0,1,1.2.213A5.392,5.392,0,0,1,47.4,28.345Z" transform="translate(-15.898 -9.013)" fill="none" stroke="#60328f" stroke-width="1"/>
    <path id="Path_1830" data-name="Path 1830" d="M33.357,26.467c.551.788,2.127.676,3.443-.243a4.316,4.316,0,0,0,1.292-3.069,6.444,6.444,0,0,0-1.736-.267,2.754,2.754,0,0,0-1.594.421,3.967,3.967,0,0,0-1.446,1.742,1.541,1.541,0,0,0,.041,1.416Z" transform="translate(-11.882 -8.509)" fill="none" stroke="#60328f" stroke-width="1"/>
    <path id="Path_1831" data-name="Path 1831" d="M37.1,39.567v-.012C37.1,37.63,33.839,36,29.987,36a12.914,12.914,0,0,0-2.927.332l6.169,3.295a.583.583,0,0,1,.314.521v.966Q35.534,40.252,37.1,39.567Z" transform="translate(-9.396 -13.853)" fill="none" stroke="#60328f" stroke-width="1"/>
    <path id="Path_1832" data-name="Path 1832" d="M42.185,5.555H43.37V4.37h1.185V3.185H43.37V2H42.185V3.185H41V4.37h1.185Z" transform="translate(-15.075)" fill="none" stroke="#60328f" stroke-width="1"/>
    <path id="Path_1833" data-name="Path 1833" d="M49.185,11.555H50.37V10.37h1.185V9.185H50.37V8H49.185V9.185H48V10.37h1.185Z" transform="translate(-17.927 -2.445)" fill="none" stroke="#60328f" stroke-width="1"/>
    <path id="Path_1834" data-name="Path 1834" d="M18.185,5.555H19.37V4.37h1.185V3.185H19.37V2H18.185V3.185H17V4.37h1.185Z" transform="translate(-5.297)" fill="none" stroke="#60328f" stroke-width="1"/>
    <path id="Path_1835" data-name="Path 1835" d="M11.185,11.555H12.37V10.37h1.185V9.185H12.37V8H11.185V9.185H10V10.37h1.185Z" transform="translate(-2.445 -2.445)" fill="none" stroke="#60328f" stroke-width="1"/>
  </g>
</svg>
