<svg xmlns="http://www.w3.org/2000/svg" width="14.727" height="16.54" viewBox="0 0 14.727 16.54">
  <g id="Icon_akar-shopping-bag" data-name="Icon akar-shopping-bag" transform="translate(0.501 0.5)">
    <path id="Path_3" data-name="Path 3" d="M5.38,13.43A1.554,1.554,0,0,1,6.93,12H16.3a1.554,1.554,0,0,1,1.549,1.43l.624,7.77a1.554,1.554,0,0,1-1.549,1.678H6.3A1.554,1.554,0,0,1,4.756,21.2Z" transform="translate(-4.751 -7.338)" fill="none" stroke="#fff" stroke-linecap="round" stroke-linejoin="round" stroke-width="1"/>
    <path id="Path_4" data-name="Path 4" d="M18.216,9.993V6.108A3.108,3.108,0,0,0,15.108,3h0A3.108,3.108,0,0,0,12,6.108V9.993" transform="translate(-8.245 -3)" fill="none" stroke="#fff" stroke-linecap="round" stroke-linejoin="round" stroke-width="1"/>
  </g>
</svg>
