<svg id="Link" xmlns="http://www.w3.org/2000/svg" xmlns:xlink="http://www.w3.org/1999/xlink" width="32" height="32" viewBox="0 0 32 32">
  <defs>
    <clipPath id="clip-path">
      <rect id="Icon_Frame_Clip_Content_Mask_" data-name="Icon [Frame Clip Content Mask]" width="14.77" height="14" fill="none"/>
    </clipPath>
  </defs>
  <rect id="Link_Frame_Background_" data-name="Link [Frame Background]" width="32" height="32" rx="16" fill="#60992d"/>
  <g id="Icon_Clip_Content_" data-name="Icon (Clip Content)" transform="translate(8.61 8.13)" clip-path="url(#clip-path)">
    <path id="Vector" d="M4.471-6.714a2.154,2.154,0,0,1,.3-1.121,2.308,2.308,0,0,1,.817-.817,2.154,2.154,0,0,1,1.121-.3,2.154,2.154,0,0,1,1.121.3,2.308,2.308,0,0,1,.817.817,2.154,2.154,0,0,1,.3,1.121,2.154,2.154,0,0,1-.3,1.121,2.308,2.308,0,0,1-.817.817,2.154,2.154,0,0,1-1.121.3,2.154,2.154,0,0,1-1.121-.3,2.308,2.308,0,0,1-.817-.817,2.154,2.154,0,0,1-.3-1.121Zm-1.2,0a3.353,3.353,0,0,0,.464,1.73A3.452,3.452,0,0,0,4.99-3.731a3.377,3.377,0,0,0,1.73.464,3.34,3.34,0,0,0,1.723-.464A3.469,3.469,0,0,0,9.7-4.983a3.34,3.34,0,0,0,.464-1.723A3.377,3.377,0,0,0,9.7-8.437,3.452,3.452,0,0,0,8.444-9.7a3.34,3.34,0,0,0-1.723-.464A3.377,3.377,0,0,0,4.99-9.7a3.436,3.436,0,0,0-1.26,1.26A3.365,3.365,0,0,0,3.267-6.714ZM9.5-10.3a.871.871,0,0,0,.125.457.785.785,0,0,0,.374.291.727.727,0,0,0,.457.042.717.717,0,0,0,.429-.221.808.808,0,0,0,.208-.415.855.855,0,0,0-.042-.457.812.812,0,0,0-.311-.374A.811.811,0,0,0,10.3-11.1a.773.773,0,0,0-.568.235A.773.773,0,0,0,9.5-10.3ZM4-1.246a3.606,3.606,0,0,1-1.246-.235,2.243,2.243,0,0,1-.775-.5,2.257,2.257,0,0,1-.5-.768A4.284,4.284,0,0,1,1.246-4q-.014-.512-.028-.941v-3.53q.014-.443.028-.955a4.191,4.191,0,0,1,.242-1.26,2.3,2.3,0,0,1,.5-.768,2.234,2.234,0,0,1,.761-.491A4.284,4.284,0,0,1,4-12.181l.955-.028H8.472l.955.028a4.464,4.464,0,0,1,1.246.235,2.221,2.221,0,0,1,.768.491,2.417,2.417,0,0,1,.512.8,3.6,3.6,0,0,1,.228,1.232v.138q.042.914.042,2.582t-.042,2.554V-4a3.606,3.606,0,0,1-.235,1.246,2.243,2.243,0,0,1-.5.775,2.243,2.243,0,0,1-.775.5,3.606,3.606,0,0,1-1.246.235H9.275Q8.389-1.2,6.721-1.2T4.139-1.246Zm-.055-12.14a5.4,5.4,0,0,0-1.62.311,3.4,3.4,0,0,0-1.19.782A3.319,3.319,0,0,0,.36-11.1a5.05,5.05,0,0,0-.318,1.62v.138Q0-8.416,0-6.714t.042,2.63v.138A5.3,5.3,0,0,0,.36-2.312a3.319,3.319,0,0,0,.775,1.19A3.455,3.455,0,0,0,2.312-.36a4.987,4.987,0,0,0,1.633.318h.138Q5.011,0,6.714,0h1.8q.443-.014.969-.042a5.254,5.254,0,0,0,1.633-.3,3.7,3.7,0,0,0,1.19-.775,3.584,3.584,0,0,0,.761-1.19,5.3,5.3,0,0,0,.318-1.633v-.138q.042-.927.042-2.63t-.042-2.63v-.138a5.05,5.05,0,0,0-.318-1.62,3.439,3.439,0,0,0-.761-1.177,3.318,3.318,0,0,0-1.19-.789,5.4,5.4,0,0,0-1.633-.318H9.344q-.927-.042-2.63-.042t-2.63.042Z" transform="translate(0.651 13.548)" fill="#fff"/>
  </g>
</svg>
