<svg xmlns="http://www.w3.org/2000/svg" width="14.529" height="14.529" viewBox="0 0 14.529 14.529">
  <g id="map_pin_folded_tourist_info_address_street_city" transform="translate(-2)">
    <path id="Path_1874" data-name="Path 1874" d="M7.435,6.859,8.627,9.7,9.819,6.859a3.533,3.533,0,1,0-2.384,0ZM8.627.962A2.572,2.572,0,1,1,6.055,3.534,2.572,2.572,0,0,1,8.627.962Zm3.625,6.883-1.564-.934a3.928,3.928,0,0,1-.547.279l-.5,1.187.9,3.2-2.851,1.7v-4.7l.005,0-.268-.638L4.771,6.356,2.277,7.845,0,14.529l3.632-2.17,3.632,2.17L10.9,12.36l3.632,2.17ZM3.112,11.679l-1.559.931L2.982,8.416l1.258-.751Zm3.727,1.6L4.019,11.6,5.149,7.573l1.679,1,.011.006Zm3.5-5.592,1.212.724,1.429,4.194L11.46,11.7Z" transform="translate(2)" fill="#6fbf02"/>
  </g>
</svg>
