<svg xmlns="http://www.w3.org/2000/svg" width="33.993" height="34.049" viewBox="0 0 33.993 34.049">
  <path id="Path_1836" data-name="Path 1836" d="M12.39,18.234A3.141,3.141,0,1,0,9.25,15.093,3.144,3.144,0,0,0,12.39,18.234Zm0-5.184a2.043,2.043,0,1,1-2.043,2.043A2.045,2.045,0,0,1,12.39,13.05ZM42.167,8.1a.549.549,0,0,0-.5-.068l-8.7,3.118V10.92a.549.549,0,0,0-.549-.549H17.747a.549.549,0,0,0-.549.549V23.591h-.072l-.755-.8v-1.92a2.461,2.461,0,0,0-2.458-2.46H10.867a2.462,2.462,0,0,0-2.46,2.46v9.473a.549.549,0,0,0,.549.549h1v8.848a.549.549,0,0,0,.549.549h3.775a.549.549,0,0,0,.549-.549V30.9h1a.549.549,0,0,0,.549-.549V26.854a.546.546,0,0,0,.058,0H17.2V37.411a.549.549,0,0,0,.549.549h1.714a.549.549,0,0,0,.549-.549V26.858h2.421a1.636,1.636,0,0,0,1.61-1.364h.212a1.013,1.013,0,0,0,1.012-1.012v-6.5a.549.549,0,0,0-.549-.549H20.01V13.183H29.9V37.411a.549.549,0,0,0,.364.517l11.4,4.086A.549.549,0,0,0,42.4,41.5V8.545a.549.549,0,0,0-.233-.449ZM13.729,39.2H11.052V30.9h2.677ZM9.5,29.8V20.875a1.364,1.364,0,0,1,1.362-1.362h3.047a1.363,1.363,0,0,1,1.36,1.362v.762l-.925-.976a1.63,1.63,0,0,0-2.362,2.247l3.261,3.44.027.025V29.8H9.5Zm9.408,7.064H18.3v-10h.617Zm3.518-11.1H16.5a.56.56,0,0,0-.066,0,.527.527,0,0,1-.386-.165l-3.261-3.44h0a.532.532,0,0,1,.77-.735l2.94,3.1a.549.549,0,0,0,.4.171h5.54a.536.536,0,0,1,0,1.072ZM24.167,24.4h-.329a1.633,1.633,0,0,0-1.407-.806H18.3V18.528h1.22v2.294a.549.549,0,0,0,.549.549H22.4a.549.549,0,0,0,.549-.549V18.528h1.22V24.4Zm-3.553-5.869h1.236v1.745H20.614Zm-1.152-6.443a.549.549,0,0,0-.549.549v4.8H18.3V11.468H31.87v.073l-1.518.544ZM41.3,40.717,31,37.024v-24L41.3,9.325Zm-9.178-20a.549.549,0,0,0,.367.141.559.559,0,0,0,.058,0l7.317-.784a.549.549,0,0,0,.49-.546V11.449a.549.549,0,0,0-.734-.516l-7.317,2.623a.549.549,0,0,0-.364.516v6.235a.549.549,0,0,0,.182.408Zm.916-6.257,6.219-2.23v6.8L33.04,19.7Zm5.24,11.931v2.2a.082.082,0,0,0,.08.08h.767a.549.549,0,1,1,0,1.1H38.36a1.179,1.179,0,0,1-1.177-1.177v-2.2a1.178,1.178,0,0,1,1.177-1.175h.767a.549.549,0,1,1,0,1.1H38.36a.082.082,0,0,0-.08.078Z" transform="translate(-8.407 -7.997)" fill="#60328f"/>
</svg>
