<svg xmlns="http://www.w3.org/2000/svg" width="20.768" height="15.819" viewBox="0 0 20.768 15.819">
  <path id="Path_1" data-name="Path 1" d="M18.537,61H2.231A2.233,2.233,0,0,0,0,63.231V74.588a2.233,2.233,0,0,0,2.231,2.231H18.537a2.233,2.233,0,0,0,2.231-2.231V63.231A2.233,2.233,0,0,0,18.537,61Zm1.014,2.231V74.588a.983.983,0,0,1-.011.147L13.69,68.91l5.85-5.826A.983.983,0,0,1,19.551,63.231Zm-1.014-1.014a1.055,1.055,0,0,1,.14.01l-8.293,8.258L2.091,62.227a1.055,1.055,0,0,1,.14-.01ZM1.228,74.736a.983.983,0,0,1-.011-.147V63.231a.983.983,0,0,1,.011-.147l5.85,5.826Zm1,.867a1.055,1.055,0,0,1-.14-.01L7.94,69.768l2.015,2.006a.608.608,0,0,0,.858,0l2.015-2.006,5.849,5.824a1.055,1.055,0,0,1-.14.01Z" transform="translate(0 -61)"/>
</svg>
