<svg xmlns="http://www.w3.org/2000/svg" width="172.738" height="37.365" viewBox="0 0 172.738 37.365">
  <g id="Group_662" data-name="Group 662" transform="translate(-83 -85)">
    <g id="Group_661" data-name="Group 661" transform="translate(126.354 93.458)">
      <path id="Path_1839" data-name="Path 1839" d="M766.914,30.241a1.378,1.378,0,1,1-1.378,1.378,1.378,1.378,0,0,1,1.378-1.378" transform="translate(-723.291 -30.241)" fill="#7a2483"/>
      <g id="Group_660" data-name="Group 660" transform="translate(0 0.098)">
        <path id="Path_1838" data-name="Path 1838" d="M428.8,92.329a9.589,9.589,0,0,0-1.11-.351.279.279,0,0,0-.146.027h0a1.038,1.038,0,0,0-.124.354l-.053.331H426.22l-.741-5.3h1.211l.1.256a7.287,7.287,0,0,0,1.193,2.159,3.87,3.87,0,0,0,1.283,1.009,3.6,3.6,0,0,0,1.552.332,2.189,2.189,0,0,0,1.5-.545,1.852,1.852,0,0,0,.6-1.492,2.1,2.1,0,0,0-.63-1.523,12.984,12.984,0,0,0-1.977-1.4l-1.813-1.129a6.889,6.889,0,0,1-1.383-1.111l0,0a3.64,3.64,0,0,1-1-2.477,4.015,4.015,0,0,1,1.181-2.947,4.212,4.212,0,0,1,3.1-1.181,5.834,5.834,0,0,1,1.873.379,9.453,9.453,0,0,0,1.049.335.409.409,0,0,0,.222-.041.953.953,0,0,0,.156-.372l.073-.3h1.1l.547,5.3h-1.249l-.076-.3a4.419,4.419,0,0,0-1.506-2.62,3.551,3.551,0,0,0-2.033-.735,1.967,1.967,0,0,0-1.271.427,1.328,1.328,0,0,0-.5,1.114,1.677,1.677,0,0,0,.4,1.14l0,0a6.052,6.052,0,0,0,1.446,1.149l1.863,1.149a9.875,9.875,0,0,1,2.564,2.067l0,0a3.816,3.816,0,0,1,.786,2.393,3.965,3.965,0,0,1-1.389,3.077,5.058,5.058,0,0,1-3.473,1.217,6.669,6.669,0,0,1-2.185-.4m-48.586.363-5.328-11.881a5.835,5.835,0,0,0-.966-1.711,1.508,1.508,0,0,0-.925-.312l-.367-.025V77.639h6.425v1.175l-.389.005a3.854,3.854,0,0,0-.971.085c-.2.065-.234.155-.234.3a1.769,1.769,0,0,0,.154.581c.118.3.342.821.669,1.542h0l2.919,6.5,2.674-7.093c.127-.34.224-.629.29-.859a1.848,1.848,0,0,0,.088-.481.43.43,0,0,0-.281-.463,2.833,2.833,0,0,0-.888-.116l-.382-.011V77.639h5.122v1.1l-.34.047a1.566,1.566,0,0,0-.794.274h0a3.642,3.642,0,0,0-.846,1.464h0l-4.784,12.167Zm115.071-.248V91.3l.362-.029c1.07-.086,1.3-.289,1.335-.329s.217-.3.217-1.441V81.824l-4.772,10.619h-.8L486.944,82.28v6.656c0,1.374.249,1.838.4,1.993.071.073.335.249,1.238.347l.351.038v1.13h-5.763V91.311l.354-.036c1-.1,1.319-.326,1.42-.451.086-.106.285-.5.285-1.889V80.329c0-.885-.168-1.142-.241-1.21s-.338-.249-1.392-.3l-.374-.018V77.639h4.836L492.7,87.757l4.437-10.118h4.872v1.154l-.366.026c-.93.065-1.2.24-1.268.313-.054.054-.228.3-.228,1.2v9.424c0,.919.168,1.151.22,1.2.073.069.343.239,1.283.322l.359.031v1.137Zm-23.389,0V91.307l.359-.032a4.316,4.316,0,0,0,1.073-.168.449.449,0,0,0,.037-.226,2.165,2.165,0,0,0-.091-.448A5.578,5.578,0,0,0,473,89.66l-.776-1.8H467.2c-.488,1.229-.785,1.994-.883,2.276a1.964,1.964,0,0,0-.138.6c0,.253.1.336.208.389a3.046,3.046,0,0,0,.88.15l.361.03v1.139h-4.987V91.316l.349-.039a1.329,1.329,0,0,0,.959-.471,16.015,16.015,0,0,0,1.351-2.778l4.519-10.636h.931l.1.236,5.275,12.01a4.54,4.54,0,0,0,.746,1.351,1.609,1.609,0,0,0,.851.29l.34.047v1.119ZM467.9,86.215h3.69L469.733,81.8Zm-17.245,6.229V91.31l.354-.035c1.05-.1,1.272-.293,1.306-.33s.2-.252.2-1.44V85.781h-5.637v3.972c0,.917.174,1.152.228,1.2.075.071.351.244,1.282.318l.362.029v1.14h-6.673v-1.13l.351-.038c1.045-.113,1.274-.3,1.309-.341.02-.022.2-.246.2-1.43V80.329c0-.9-.175-1.146-.229-1.2-.073-.072-.343-.246-1.267-.312l-.366-.026V77.639h6.673v1.153l-.366.026c-.925.066-1.2.241-1.274.315-.055.053-.232.3-.232,1.2v3.734h5.637V80.329c0-.905-.173-1.148-.226-1.2-.071-.071-.338-.244-1.27-.31l-.366-.026V77.639h6.673v1.153l-.366.026c-.925.066-1.194.24-1.267.312-.054.053-.229.3-.229,1.2v9.424c0,.917.17,1.149.222,1.2.074.07.348.241,1.281.324l.359.032v1.137Zm-38.007,0V91.3l.366-.026a3.063,3.063,0,0,0,1.464-.307c.024-.018.229-.206.229-1.214V80.329c0-.919-.19-1.158-.249-1.209-.084-.074-.392-.251-1.435-.3l-.374-.018V77.64H419.7V78.8l-.374.018c-1.043.05-1.351.227-1.435.3-.059.051-.249.29-.249,1.209v9.424c0,1.008.206,1.2.229,1.214a3.067,3.067,0,0,0,1.464.307l.366.026v1.143Zm-9.13,0-.118-.153-4.923-6.356-.6.026v3.792c0,.954.187,1.167.224,1.2a2.54,2.54,0,0,0,1.33.322l.36.031v1.138h-6.673V91.309l.357-.033c1.007-.094,1.22-.3,1.254-.335.049-.059.21-.338.21-1.435V80.329c0-.889-.172-1.135-.225-1.189-.07-.072-.33-.248-1.234-.321l-.362-.029v-1.15h6.26a9.058,9.058,0,0,1,3.192.492,4.055,4.055,0,0,1,1.918,1.388,3.727,3.727,0,0,1,.653,2.218,3.359,3.359,0,0,1-1.173,2.735,4.951,4.951,0,0,1-1.319.765,6.917,6.917,0,0,1-1.009.311l3.95,4.857a2.572,2.572,0,0,0,.695.63,2.254,2.254,0,0,0,.88.241l.354.035v1.133ZM397.911,79.3a.8.8,0,0,0-.034.276v4.814a9.363,9.363,0,0,0,2.728-.43,2.246,2.246,0,0,0,1.082-.846,2.531,2.531,0,0,0,.358-1.395,2.588,2.588,0,0,0-.321-1.346,2.023,2.023,0,0,0-.956-.807h0a4.946,4.946,0,0,0-1.98-.327,3.531,3.531,0,0,0-.875.062Z" transform="translate(-372.624 -72.374)" fill="#7a2483"/>
        <path id="Path_1840" data-name="Path 1840" d="M767.731,31.156a1.28,1.28,0,1,1-1.28,1.28A1.28,1.28,0,0,1,767.731,31.156Z" transform="translate(-724.108 -31.156)" fill="none" stroke="#7a2483" stroke-width="0.1"/>
      </g>
    </g>
    <path id="Path_1842" data-name="Path 1842" d="M18.684,37.426a18.832,18.832,0,0,1-3.766-.38,18.585,18.585,0,0,1-6.681-2.811,18.737,18.737,0,0,1-6.769-8.22A18.6,18.6,0,0,1,.379,22.508a18.861,18.861,0,0,1,.047-7.75A18.581,18.581,0,0,1,3.564,7.764,18.828,18.828,0,0,1,6.1,4.935a12.906,12.906,0,0,0,1.145,2.7,13.662,13.662,0,0,0,1.711,2.384,13.8,13.8,0,0,0,2.18,1.969,13.226,13.226,0,0,0,2.549,1.45.96.96,0,0,0,.1.07l.025.015a.438.438,0,0,1,.094.065.471.471,0,0,1,.061.08.428.428,0,0,0,.07.088.417.417,0,0,0,.1.059l.034.017a.968.968,0,0,1,.211.16c.034.03.067.06.1.089a1.314,1.314,0,0,0,.189.119c.035.019.074.041.11.064a2.118,2.118,0,0,1,.188.131l.059.047a.6.6,0,0,0,.235.138.744.744,0,0,1,.267.138h0a.556.556,0,0,1,.071.064.613.613,0,0,0,.067.06,1.08,1.08,0,0,0,.192.1,1.337,1.337,0,0,1,.158.08c.091.057.188.107.281.155a2.913,2.913,0,0,1,.375.218.463.463,0,0,0,.148.071c.024.007.047.017.07.024a.591.591,0,0,0,.146.04h.012l.032,0H17.1l.017,0A66.944,66.944,0,0,0,20.089,21.6c.677,1.24,1.474,2.531,2.583,4.184C23.507,27,24.3,28.052,25.1,29.011h-.005l-.072-.018-.357-.1c-.136-.044-.283-.093-.427-.15-.044-.018-.089-.04-.133-.061a1.2,1.2,0,0,0-.236-.1c-.064-.015-.128-.024-.191-.032l-.075-.01a1.073,1.073,0,0,1-.211-.062l-.036-.013c-.262-.093-.566-.2-.852-.332l-.074-.033-.007,0a2.505,2.505,0,0,0-.461-.176c-.035-.008-.07-.014-.1-.019a.957.957,0,0,1-.16-.035c-.09-.032-.18-.072-.267-.111h0l-.021-.01c-.049-.023-.1-.047-.147-.071-.088-.044-.178-.088-.269-.123-.041-.015-.081-.028-.12-.04a1.047,1.047,0,0,1-.238-.1l-.068-.042a1.062,1.062,0,0,0-.251-.129l-.023-.006A13.852,13.852,0,0,1,18.527,25.5c-.227-.25-.462-.509-.7-.755A16.928,16.928,0,0,0,5.912,19.6H5.763a73.453,73.453,0,0,0,7.363,5.866,16.13,16.13,0,0,0,3.942,2.171,6.2,6.2,0,0,0,2.018.4,4.089,4.089,0,0,0,1.048-.138c.041.016.079.03.118.043l.033.011h0a1.168,1.168,0,0,1,.176.067,1.071,1.071,0,0,1,.131.083.79.79,0,0,0,.32.152l.058.017a2.626,2.626,0,0,1,.4.166c.06.029.122.059.185.087a3.37,3.37,0,0,0,.342.121h0c.06.019.123.039.183.06.116.041.23.086.34.134l.108.047a1.515,1.515,0,0,0,.412.137,1.814,1.814,0,0,1,.461.138l.261.127a2.8,2.8,0,0,0,.331.1c.089.023.181.048.269.079.154.056.313.1.467.152h0a6.842,6.842,0,0,1,.663.228,1.288,1.288,0,0,0,.247.073l.11.024h0a1.822,1.822,0,0,0,.19.037l.027.03.015.017a11.618,11.618,0,0,0-2.107-.192,11.766,11.766,0,0,0-5.632,1.425c-.462.253-.929.553-1.379.845a9.456,9.456,0,0,1-3.316,1.585,8.263,8.263,0,0,0,2.727.439,12.847,12.847,0,0,0,4.172-.767,37.361,37.361,0,0,0,4.184-1.843h0c.617-.3,1.254-.615,1.889-.906.194.206.393.411.591.61l.328.314.013.013a21.049,21.049,0,0,0,1.59,1.428l.857.7a18.622,18.622,0,0,1-11.22,3.745m11.775-4.176h0a36.257,36.257,0,0,1-2.892-2.557,36.684,36.684,0,0,1-5.156-6.442,63.9,63.9,0,0,1-3.649-6.744.779.779,0,0,0,.164-.252,1.993,1.993,0,0,1,.1-.217l.007-.014,0,0a.248.248,0,0,1,.048-.075.384.384,0,0,0,.087-.173c.007-.022.013-.042.02-.061l.106-.27c.044-.108.094-.217.147-.322.017-.033.038-.067.058-.1a.692.692,0,0,0,.09-.179,1.334,1.334,0,0,0,.03-.165c0-.015,0-.03.006-.044a.663.663,0,0,1,.051-.155l.015-.036.02-.049c.082-.2.167-.412.262-.609L20,14.736l0-.009a1.393,1.393,0,0,0,.14-.369c.005-.028.008-.056.01-.083v0a.7.7,0,0,1,.02-.125,2.01,2.01,0,0,1,.083-.216l.006-.013c.015-.035.032-.072.047-.1a2.064,2.064,0,0,0,.094-.227,1,1,0,0,0,.027-.1.758.758,0,0,1,.043-.147,12.917,12.917,0,0,0,2.737-1.678,7.343,7.343,0,0,0,1.1-1.12A5.581,5.581,0,0,0,25.1,9.187a6.943,6.943,0,0,0,.139-4.206,26.576,26.576,0,0,0-1.407-4.2A18.707,18.707,0,0,1,36.5,24.369c-.19-.154-.383-.307-.569-.455a24.351,24.351,0,0,1-2.016-1.727,6.657,6.657,0,0,1-1.456-2.013,33.631,33.631,0,0,0,.192,5.6,12.351,12.351,0,0,0,1.192,3.886,18.792,18.792,0,0,1-3.389,3.589ZM18.407,16.76h0c-.552-1.175-1.1-2.411-1.664-3.779-.381-.935-.79-1.972-1.287-3.263-.58-1.495-1.058-2.683-1.42-3.531h.007l-.008,0h0l-.1-.234a14.322,14.322,0,0,0,1.451-5.6,18.844,18.844,0,0,1,8.238.37,58.229,58.229,0,0,0-3.656,8.723,6.823,6.823,0,0,0-.43,2.044,2.749,2.749,0,0,0,.389,1.48l0,.02,0,.017a.647.647,0,0,1-.043.151.691.691,0,0,1-.065.105.646.646,0,0,0-.068.111.63.63,0,0,0-.036.133v0c0,.014-.005.028-.009.043a1.313,1.313,0,0,1-.118.309c-.021.044-.044.09-.063.136a1.823,1.823,0,0,0-.081.239c-.014.051-.031.109-.05.163a2.6,2.6,0,0,1-.1.256l-.032.067,0,0a.985.985,0,0,0-.115.321,1.01,1.01,0,0,1-.115.348.863.863,0,0,1-.058.1.873.873,0,0,0-.057.093,1.516,1.516,0,0,0-.089.234,1.692,1.692,0,0,1-.078.212c-.044.094-.085.192-.124.286v0a4.549,4.549,0,0,1-.2.446Zm-1.68-2.148h0c-.017-.006-.033-.012-.049-.019l-.206-.1a2.422,2.422,0,0,1-.238-.145.755.755,0,0,1-.07-.059.455.455,0,0,0-.127-.092.9.9,0,0,0-.127-.036l-.037-.009a.412.412,0,0,1-.117-.059l-.024-.015a3.954,3.954,0,0,1-.464-.324l-.042-.035a.949.949,0,0,0-.253-.171c-.021-.008-.042-.014-.062-.02a.4.4,0,0,1-.1-.038,1.224,1.224,0,0,1-.151-.115l0,0c-.029-.024-.057-.05-.082-.073a1.365,1.365,0,0,0-.134-.112.745.745,0,0,0-.067-.039.392.392,0,0,1-.129-.1l-.026-.033,0,0c-.013-.017-.028-.037-.044-.055a10.518,10.518,0,0,0-1.115-2.723,11.775,11.775,0,0,0-1.805-2.354A12.2,12.2,0,0,0,8.92,6.033a11.461,11.461,0,0,0-2.7-1.206,18.736,18.736,0,0,1,3.9-2.691,8.259,8.259,0,0,0,1.4,2.226,6.9,6.9,0,0,0,2.042,1.6c.2.659.48,1.523.794,2.434.617,1.778,1.291,3.568,1.95,5.177.141.347.285.7.428,1.036Z" transform="translate(83 84.939)" fill="#73338a"/>
  </g>
</svg>
