<svg width="256" height="256" viewBox="0 0 256 256" fill="none" xmlns="http://www.w3.org/2000/svg">
<path d="M128 256C119.334 256.002 110.689 255.131 102.198 253.4C85.8275 250.044 70.2779 243.5 56.4353 234.139C35.8558 220.247 19.7464 200.684 10.0589 177.822C6.78596 170.078 4.28731 162.03 2.59947 153.794C-0.970775 136.263 -0.862239 118.182 2.9182 100.696C6.67717 83.4026 14.0003 67.0831 24.4202 52.7792C29.5373 45.7478 35.3524 39.2519 41.7766 33.3907C43.6815 39.8335 46.3145 46.0382 49.6245 51.8847C52.9344 57.7357 56.8648 63.2132 61.3479 68.2222C65.8316 73.2364 70.8376 77.7577 76.2809 81.7092C81.7166 85.6578 87.5745 88.9896 93.7466 91.6432C93.974 91.8182 94.2127 91.9781 94.461 92.1219L94.635 92.2231C94.8676 92.3422 95.0836 92.4912 95.2775 92.6663C95.4372 92.8342 95.5783 93.0187 95.6985 93.2168C95.8303 93.4371 95.9906 93.6392 96.175 93.8179C96.379 93.983 96.6048 94.1191 96.8459 94.2226C96.9198 94.2581 97.0007 94.2985 97.0756 94.337C97.6064 94.6335 98.094 95.0016 98.5246 95.4309C98.7543 95.6333 98.983 95.8458 99.2258 96.038C99.6336 96.3458 100.067 96.6184 100.521 96.8526C100.76 96.9842 101.027 97.134 101.278 97.2898C101.723 97.5655 102.154 97.8651 102.567 98.1874C102.705 98.2886 102.847 98.4049 102.972 98.5071C103.429 98.9409 103.98 99.2633 104.582 99.4492C105.249 99.6364 105.871 99.9576 106.41 100.393L106.424 100.402C106.599 100.534 106.762 100.68 106.912 100.839C107.054 100.988 107.208 101.126 107.37 101.252C107.784 101.53 108.225 101.766 108.686 101.955C109.059 102.113 109.422 102.295 109.771 102.501C110.395 102.89 111.056 103.232 111.694 103.563C112.587 103.996 113.447 104.496 114.266 105.057C114.572 105.279 114.914 105.445 115.278 105.546C115.446 105.597 115.603 105.659 115.756 105.713C116.076 105.847 116.412 105.94 116.756 105.988L116.831 105.996H116.839C116.913 106.006 116.987 106.012 117.062 106.013H117.146C117.185 106.01 117.223 106.004 117.261 105.996C123.344 120.199 130.141 134.085 137.626 147.602C142.263 156.102 147.721 164.942 155.319 176.271C161.039 184.555 166.481 191.777 171.953 198.352L171.918 198.346C171.765 198.31 171.59 198.269 171.427 198.223L168.983 197.509C168.049 197.205 167.048 196.871 166.061 196.48C165.757 196.356 165.454 196.206 165.15 196.06C164.636 195.783 164.093 195.563 163.531 195.402C163.095 195.301 162.652 195.24 162.224 195.181C162.055 195.159 161.881 195.135 161.718 195.11C161.224 195.018 160.741 194.877 160.276 194.687L160.031 194.598C158.234 193.961 156.153 193.207 154.195 192.321L153.689 192.093L153.64 192.07C152.629 191.565 151.57 191.161 150.479 190.865C150.241 190.809 150.003 190.77 149.771 190.733C149.4 190.684 149.034 190.603 148.676 190.491C148.057 190.274 147.442 189.998 146.847 189.73H146.841L146.694 189.664C146.359 189.511 146.016 189.341 145.688 189.177C145.087 188.878 144.469 188.57 143.845 188.333C143.565 188.232 143.29 188.14 143.022 188.057C142.452 187.903 141.904 187.679 141.389 187.39C141.234 187.296 141.076 187.198 140.924 187.102C140.393 186.733 139.814 186.435 139.204 186.219C139.155 186.204 139.103 186.188 139.046 186.174C134.66 182.584 130.604 178.608 126.926 174.293C125.369 172.579 123.759 170.807 122.126 169.119C100.801 147.036 70.2867 133.852 40.4996 133.852H39.4817C55.4184 148.314 72.2664 161.739 89.9218 174.044C97.7019 179.461 106.847 185.527 116.926 188.92C122.642 190.842 126.775 191.663 130.748 191.663C133.171 191.659 135.583 191.341 137.924 190.717C138.203 190.824 138.468 190.919 138.734 191.008L138.961 191.082L138.993 191.091C139.405 191.211 139.808 191.364 140.196 191.549C140.509 191.717 140.808 191.908 141.093 192.12C141.736 192.628 142.485 192.983 143.284 193.16C143.421 193.197 143.551 193.234 143.68 193.274C144.617 193.578 145.528 193.958 146.403 194.41C146.813 194.613 147.237 194.815 147.669 195.004C148.434 195.323 149.216 195.6 150.011 195.835H150.019C150.433 195.967 150.863 196.102 151.275 196.247C152.067 196.527 152.851 196.834 153.607 197.158C153.854 197.259 154.105 197.37 154.346 197.479C155.236 197.925 156.186 198.242 157.166 198.418C158.255 198.591 159.317 198.908 160.323 199.362L162.114 200.234C162.855 200.515 163.614 200.75 164.384 200.937C164.991 201.098 165.621 201.264 166.226 201.479C167.278 201.861 168.371 202.195 169.427 202.518H169.438C170.978 202.961 172.495 203.482 173.982 204.08C174.529 204.304 175.096 204.471 175.677 204.581C175.933 204.632 176.183 204.696 176.431 204.749H176.439C176.868 204.858 177.303 204.943 177.742 205.005L177.925 205.208L178.026 205.322C173.265 204.445 168.433 204.005 163.591 204.006C150.116 203.985 136.85 207.342 125.007 213.771C121.839 215.502 118.645 217.562 115.556 219.558C108.392 224.185 100.985 228.969 92.8349 230.416C98.849 232.46 105.164 233.477 111.516 233.425C121.269 233.267 130.927 231.489 140.097 228.163C149.978 224.748 159.524 220.068 168.765 215.536L168.781 215.528C173.008 213.458 177.375 211.315 181.721 209.321C183.053 210.73 184.414 212.137 185.768 213.503C186.519 214.218 187.279 214.947 188.013 215.654L188.103 215.74C191.567 219.183 195.204 222.447 198.999 225.521L204.868 230.321C182.717 247.008 155.732 256.023 128 256ZM208.67 227.387C201.76 221.903 195.147 216.056 188.859 209.869C175.462 196.531 163.613 181.724 153.536 165.729C144.285 150.841 135.936 135.411 128.535 119.522C129.019 119.025 129.402 118.438 129.661 117.794C129.867 117.285 130.104 116.789 130.37 116.309L130.418 116.208L130.43 116.185C130.509 115.996 130.62 115.822 130.76 115.672C131.057 115.334 131.262 114.925 131.355 114.485C131.401 114.338 131.443 114.2 131.493 114.069L132.222 112.216C132.526 111.477 132.866 110.73 133.226 110.009C133.341 109.781 133.484 109.551 133.624 109.33C133.887 108.954 134.094 108.542 134.238 108.106C134.329 107.734 134.397 107.357 134.44 106.977C134.454 106.876 134.468 106.775 134.484 106.673C134.556 106.308 134.674 105.952 134.833 105.615C134.867 105.535 134.901 105.453 134.934 105.371L135.071 105.035C135.632 103.647 136.215 102.215 136.864 100.865L137.023 100.541L137.051 100.482C137.489 99.6889 137.812 98.8371 138.009 97.9526C138.045 97.7603 138.062 97.5691 138.08 97.3809V97.3697C138.101 97.08 138.147 96.7928 138.22 96.5116C138.382 96.0082 138.573 95.5146 138.791 95.0332L138.83 94.9452C138.931 94.7043 139.051 94.4534 139.152 94.2297C139.397 93.7255 139.612 93.2072 139.796 92.6774C139.87 92.4427 139.931 92.2043 139.979 91.963C140.043 91.6166 140.142 91.2775 140.275 90.9511C146.979 87.9136 153.278 84.0517 159.026 79.4546C161.81 77.1757 164.343 74.6045 166.579 71.7852C168.8 68.9671 170.612 65.8505 171.964 62.5271C176.129 52.169 174.781 41.139 172.919 33.7105C171.618 28.5193 168.072 15.3187 163.279 4.90806C179.709 9.63571 195.026 17.603 208.33 28.3407C221.634 39.0784 232.655 52.3696 240.744 67.4316C248.834 82.4936 253.828 99.0221 255.433 116.044C257.038 133.065 255.222 150.236 250.091 166.545C248.788 165.491 247.468 164.44 246.191 163.425C241.374 159.733 236.763 155.781 232.377 151.586C228.217 147.654 224.834 142.975 222.404 137.792C222.132 150.399 221.849 163.434 223.72 176.157C224.953 185.423 227.712 194.42 231.886 202.784C225.262 211.966 217.456 220.234 208.669 227.374L208.67 227.387ZM126.103 114.416C122.317 106.365 118.589 97.8959 114.706 88.5275C112.098 82.12 109.296 75.0163 105.886 66.1731C101.912 55.9334 98.6399 47.7945 96.1589 41.982H96.2095L96.1528 41.9597H96.1457C95.8745 41.3242 95.661 40.8304 95.4607 40.3599C101.35 28.3796 104.733 15.3236 105.403 1.99068C124.171 -1.3432 143.445 -0.479243 161.84 4.52049C151.884 23.7304 143.507 43.7184 136.792 64.2868C135.262 68.9731 133.886 73.5692 133.85 78.2899C133.761 81.8531 134.685 85.3684 136.515 88.4273L136.483 88.567L136.461 88.6803C136.405 89.0366 136.305 89.3845 136.164 89.7165C136.037 89.9699 135.888 90.2114 135.718 90.438C135.539 90.6755 135.384 90.9304 135.256 91.199C135.14 91.4926 135.057 91.798 135.007 92.1097V92.1249C134.989 92.2261 134.971 92.3202 134.948 92.4174C134.769 93.155 134.497 93.867 134.139 94.5363C133.992 94.8399 133.84 95.1536 133.708 95.4703C133.486 96.003 133.302 96.5504 133.155 97.1087C133.054 97.4588 132.942 97.8575 132.812 98.2218C132.608 98.8195 132.371 99.4059 132.104 99.9785C132.033 100.13 131.955 100.282 131.881 100.436L131.869 100.463C131.48 101.144 131.212 101.888 131.078 102.661C130.964 103.498 130.698 104.307 130.293 105.048C130.174 105.277 130.041 105.498 129.893 105.709C129.75 105.913 129.62 106.125 129.504 106.344C129.258 106.86 129.055 107.395 128.897 107.944C128.751 108.44 128.572 108.925 128.362 109.396C128.059 110.041 127.783 110.712 127.515 111.36L127.508 111.376C127.099 112.418 126.633 113.438 126.114 114.431L126.103 114.416ZM114.597 99.6972C114.482 99.6557 114.368 99.6132 114.263 99.5636L112.852 98.8775C112.29 98.5775 111.746 98.2454 111.222 97.8828C111.054 97.7577 110.894 97.6225 110.742 97.478C110.49 97.2189 110.195 97.0056 109.87 96.8476C109.586 96.7441 109.296 96.6615 109 96.6007L108.749 96.542C108.463 96.4505 108.193 96.3139 107.949 96.1372L107.784 96.036C106.672 95.3729 105.61 94.6309 104.604 93.8159L104.319 93.575C103.809 93.0922 103.223 92.6955 102.585 92.4002C102.443 92.3445 102.299 92.299 102.162 92.2615C101.93 92.2051 101.706 92.1187 101.496 92.0045C101.131 91.768 100.785 91.5034 100.461 91.2132L100.439 91.1939C100.242 91.03 100.045 90.8509 99.8744 90.688C99.5875 90.4125 99.2833 90.1556 98.9637 89.9189C98.816 89.8224 98.6633 89.7335 98.5064 89.6528C98.1705 89.4983 97.8701 89.2761 97.624 89.0001C97.5653 88.9262 97.5097 88.8493 97.448 88.7724L97.4267 88.7451C97.3357 88.6307 97.2355 88.4921 97.1232 88.3707C95.4628 81.8254 92.8908 75.5461 89.4826 69.7168C86.0569 63.8395 81.9016 58.4191 77.1157 53.5847C72.3197 48.726 66.9465 44.4733 61.1162 40.9215C55.324 37.376 49.0963 34.597 42.5891 32.6541C50.6774 25.4023 59.6535 19.2066 69.3021 14.2157C71.6577 19.7771 74.8882 24.9255 78.8713 29.4655C82.7977 33.9804 87.5454 37.7089 92.8622 40.453C94.2191 44.9672 96.1528 50.89 98.303 57.1325C102.533 69.3121 107.145 81.5776 111.66 92.6046C112.625 94.9806 113.61 97.3687 114.594 99.7002L114.597 99.6972Z" fill="#73338A"/>
</svg>
