<svg xmlns="http://www.w3.org/2000/svg" width="87.833" height="87.832" viewBox="0 0 87.833 87.832">
  <path id="Path_1877" data-name="Path 1877" d="M54.4,49.05c-1.662.679-2.724,3.282-3.8,4.611a1.593,1.593,0,0,1-2.06.446A28.979,28.979,0,0,1,34.072,41.717,1.772,1.772,0,0,1,34.3,39.3c1.04-1.225,2.347-2.616,2.628-4.266.624-3.651-4.148-14.974-10.451-9.843C8.338,39.965,56.728,79.162,65.462,57.962,67.932,51.953,57.154,47.922,54.4,49.05ZM43.914,80.16a36.209,36.209,0,0,1-18.251-4.934,3.858,3.858,0,0,0-2.951-.388l-12.007,3.3,4.182-9.214a3.832,3.832,0,0,0-.381-3.829A36.239,36.239,0,1,1,43.914,80.16Zm0-80.16a43.909,43.909,0,0,0-36.9,67.716L.341,82.409a3.835,3.835,0,0,0,3.493,5.423c2.474,0,15.962-4.239,19.4-5.181A43.914,43.914,0,1,0,43.914,0Z" transform="translate(0.003)" fill="#6fbf00" fill-rule="evenodd"/>
</svg>
